<svg width="25" height="25" viewBox="0 0 25 25" fill="none" xmlns="http://www.w3.org/2000/svg">
<path d="M12.4999 13.958L15.5208 16.9788C15.7117 17.1698 15.9548 17.2653 16.2499 17.2653C16.5451 17.2653 16.7881 17.1698 16.9791 16.9788C17.1701 16.7879 17.2655 16.5448 17.2655 16.2497C17.2655 15.9545 17.1701 15.7115 16.9791 15.5205L13.9583 12.4997L16.9791 9.47884C17.1701 9.28787 17.2655 9.04481 17.2655 8.74967C17.2655 8.45454 17.1701 8.21148 16.9791 8.02051C16.7881 7.82954 16.5451 7.73405 16.2499 7.73405C15.9548 7.73405 15.7117 7.82954 15.5208 8.02051L12.4999 11.0413L9.47909 8.02051C9.28811 7.82954 9.04506 7.73405 8.74992 7.73405C8.45478 7.73405 8.21173 7.82954 8.02075 8.02051C7.82978 8.21148 7.73429 8.45454 7.73429 8.74967C7.73429 9.04481 7.82978 9.28787 8.02075 9.47884L11.0416 12.4997L8.02075 15.5205C7.82978 15.7115 7.73429 15.9545 7.73429 16.2497C7.73429 16.5448 7.82978 16.7879 8.02075 16.9788C8.21173 17.1698 8.45478 17.2653 8.74992 17.2653C9.04506 17.2653 9.28811 17.1698 9.47909 16.9788L12.4999 13.958ZM12.4999 22.9163C11.0589 22.9163 9.70478 22.6427 8.43742 22.0955C7.17006 21.5483 6.06763 20.8063 5.13013 19.8695C4.19263 18.9327 3.45061 17.8302 2.90409 16.5622C2.35756 15.2941 2.08395 13.94 2.08325 12.4997C2.08256 11.0594 2.35617 9.70523 2.90409 8.43717C3.452 7.16912 4.19402 6.06669 5.13013 5.12988C6.06624 4.19308 7.16867 3.45106 8.43742 2.90384C9.70617 2.35662 11.0603 2.08301 12.4999 2.08301C13.9395 2.08301 15.2937 2.35662 16.5624 2.90384C17.8312 3.45106 18.9336 4.19308 19.8697 5.12988C20.8058 6.06669 21.5482 7.16912 22.0968 8.43717C22.6454 9.70523 22.9187 11.0594 22.9166 12.4997C22.9145 13.94 22.6409 15.2941 22.0958 16.5622C21.5506 17.8302 20.8086 18.9327 19.8697 19.8695C18.9308 20.8063 17.8284 21.5486 16.5624 22.0965C15.2964 22.6445 13.9423 22.9177 12.4999 22.9163Z" fill="#E05B5B"/>
</svg>
