<svg width="14" height="15" viewBox="0 0 14 15" fill="none" xmlns="http://www.w3.org/2000/svg">
<path d="M9.91675 2.4486C10.7966 2.95659 11.5285 3.68557 12.04 4.56335C12.5515 5.44114 12.8249 6.4373 12.8331 7.45321C12.8413 8.46913 12.584 9.46957 12.0868 10.3555C11.5895 11.2414 10.8695 11.9821 9.99797 12.5043C9.12647 13.0264 8.13371 13.3119 7.11797 13.3325C6.10223 13.353 5.09874 13.1079 4.20682 12.6215C3.31491 12.135 2.56551 11.4241 2.0328 10.559C1.5001 9.69389 1.20257 8.70468 1.16966 7.68926L1.16675 7.50026L1.16966 7.31126C1.20233 6.30384 1.49548 5.32207 2.02054 4.46168C2.54559 3.60128 3.28463 2.89161 4.1656 2.40186C5.04657 1.91211 6.03942 1.65899 7.04733 1.66718C8.05525 1.67538 9.04385 1.94459 9.91675 2.4486ZM7.00008 4.00026C6.8572 4.00028 6.7193 4.05274 6.61253 4.14768C6.50576 4.24262 6.43755 4.37345 6.42083 4.51535L6.41675 4.5836V7.50026L6.422 7.57668C6.4353 7.67789 6.47492 7.77383 6.53691 7.85493L6.58766 7.91326L8.33766 9.66326L8.3925 9.7111C8.4948 9.79047 8.6206 9.83355 8.75008 9.83355C8.87956 9.83355 9.00536 9.79047 9.10766 9.7111L9.1625 9.66268L9.21091 9.60785C9.29029 9.50554 9.33337 9.37974 9.33337 9.25026C9.33337 9.12078 9.29029 8.99498 9.21091 8.89268L9.1625 8.83785L7.58341 7.25818V4.5836L7.57933 4.51535C7.56261 4.37345 7.4944 4.24262 7.38763 4.14768C7.28086 4.05274 7.14296 4.00028 7.00008 4.00026Z" fill="#FFA100"/>
</svg>
