<svg width="25" height="25" viewBox="0 0 25 25" fill="none" xmlns="http://www.w3.org/2000/svg">
<path d="M12.5 1.5625C15.4008 1.5625 18.1828 2.71484 20.234 4.76602C22.2852 6.8172 23.4375 9.59919 23.4375 12.5C23.4375 15.4008 22.2852 18.1828 20.234 20.234C18.1828 22.2852 15.4008 23.4375 12.5 23.4375C9.59919 23.4375 6.8172 22.2852 4.76602 20.234C2.71484 18.1828 1.5625 15.4008 1.5625 12.5C1.5625 9.59919 2.71484 6.8172 4.76602 4.76602C6.8172 2.71484 9.59919 1.5625 12.5 1.5625ZM11.1375 14.6578L8.70781 12.2266C8.62071 12.1395 8.5173 12.0704 8.4035 12.0232C8.28969 11.9761 8.16771 11.9518 8.04453 11.9518C7.92135 11.9518 7.79937 11.9761 7.68557 12.0232C7.57176 12.0704 7.46835 12.1395 7.38125 12.2266C7.20534 12.4025 7.10651 12.6411 7.10651 12.8898C7.10651 13.1386 7.20534 13.3772 7.38125 13.5531L10.475 16.6469C10.5619 16.7344 10.6652 16.8039 10.779 16.8513C10.8929 16.8987 11.015 16.9232 11.1383 16.9232C11.2616 16.9232 11.3837 16.8987 11.4975 16.8513C11.6114 16.8039 11.7147 16.7344 11.8016 16.6469L18.2078 10.2391C18.2961 10.1523 18.3663 10.049 18.4144 9.93495C18.4625 9.82093 18.4876 9.69851 18.4882 9.57476C18.4888 9.45101 18.4648 9.32836 18.4178 9.2139C18.3707 9.09945 18.3015 8.99544 18.214 8.90788C18.1265 8.82032 18.0226 8.75094 17.9082 8.70375C17.7938 8.65655 17.6712 8.63248 17.5474 8.63291C17.4237 8.63334 17.3012 8.65826 17.1872 8.70625C17.0731 8.75424 16.9697 8.82434 16.8828 8.9125L11.1375 14.6578Z" fill="#4B7BBF"/>
</svg>
