<svg width="40" height="40" viewBox="0 0 40 40" fill="none" xmlns="http://www.w3.org/2000/svg">
<rect width="40" height="40" rx="20" fill="#FFA100"/>
<path d="M27.8999 20.6604C27.7396 20.4779 27.6512 20.2433 27.6512 20.0004C27.6512 19.7575 27.7396 19.5229 27.8999 19.3404L29.1799 17.9004C29.3209 17.7431 29.4085 17.5451 29.4301 17.3349C29.4516 17.1247 29.4061 16.9131 29.2999 16.7304L27.2999 13.2704C27.1948 13.0879 27.0348 12.9433 26.8426 12.8571C26.6505 12.7709 26.4361 12.7475 26.2299 12.7904L24.3499 13.1704C24.1107 13.2198 23.8616 13.18 23.6498 13.0584C23.4379 12.9368 23.2779 12.7419 23.1999 12.5104L22.5899 10.6804C22.5228 10.4818 22.395 10.3092 22.2245 10.1872C22.0541 10.0652 21.8495 9.99984 21.6399 10.0004H17.6399C17.4218 9.989 17.206 10.0493 17.0255 10.1721C16.8449 10.2949 16.7095 10.4734 16.6399 10.6804L16.0799 12.5104C16.0019 12.7419 15.8419 12.9368 15.63 13.0584C15.4181 13.18 15.1691 13.2198 14.9299 13.1704L12.9999 12.7904C12.8044 12.7628 12.6052 12.7936 12.4272 12.879C12.2493 12.9644 12.1006 13.1006 11.9999 13.2704L9.9999 16.7304C9.89106 16.911 9.84212 17.1215 9.86008 17.3316C9.87804 17.5417 9.96198 17.7408 10.0999 17.9004L11.3699 19.3404C11.5302 19.5229 11.6186 19.7575 11.6186 20.0004C11.6186 20.2433 11.5302 20.4779 11.3699 20.6604L10.0999 22.1004C9.96198 22.2599 9.87804 22.459 9.86008 22.6692C9.84212 22.8793 9.89106 23.0897 9.9999 23.2704L11.9999 26.7304C12.105 26.9129 12.265 27.0575 12.4571 27.1437C12.6493 27.2299 12.8637 27.2532 13.0699 27.2104L14.9499 26.8304C15.1891 26.781 15.4381 26.8208 15.65 26.9424C15.8619 27.064 16.0219 27.2589 16.0999 27.4904L16.7099 29.3204C16.7795 29.5274 16.9149 29.7059 17.0955 29.8287C17.276 29.9515 17.4918 30.0118 17.7099 30.0004H21.7099C21.9195 30.0009 22.1241 29.9356 22.2945 29.8135C22.465 29.6915 22.5928 29.519 22.6599 29.3204L23.2699 27.4904C23.3479 27.2589 23.5079 27.064 23.7198 26.9424C23.9316 26.8208 24.1807 26.781 24.4199 26.8304L26.2999 27.2104C26.5061 27.2532 26.7205 27.2299 26.9126 27.1437C27.1048 27.0575 27.2648 26.9129 27.3699 26.7304L29.3699 23.2704C29.4761 23.0877 29.5216 22.8761 29.5001 22.6659C29.4785 22.4557 29.3909 22.2577 29.2499 22.1004L27.8999 20.6604ZM26.4099 22.0004L27.2099 22.9004L25.9299 25.1204L24.7499 24.8804C24.0297 24.7332 23.2805 24.8555 22.6445 25.2242C22.0085 25.5929 21.53 26.1822 21.2999 26.8804L20.9199 28.0004H18.3599L17.9999 26.8604C17.7698 26.1622 17.2913 25.5729 16.6553 25.2042C16.0193 24.8355 15.2701 24.7132 14.5499 24.8604L13.3699 25.1004L12.0699 22.8904L12.8699 21.9904C13.3619 21.4404 13.6338 20.7283 13.6338 19.9904C13.6338 19.2525 13.3619 18.5404 12.8699 17.9904L12.0699 17.0904L13.3499 14.8904L14.5299 15.1304C15.2501 15.2776 15.9993 15.1553 16.6353 14.7866C17.2713 14.4179 17.7498 13.8285 17.9799 13.1304L18.3599 12.0004H20.9199L21.2999 13.1404C21.53 13.8385 22.0085 14.4279 22.6445 14.7966C23.2805 15.1653 24.0297 15.2876 24.7499 15.1404L25.9299 14.9004L27.2099 17.1204L26.4099 18.0204C25.9235 18.5691 25.6549 19.2771 25.6549 20.0104C25.6549 20.7437 25.9235 21.4516 26.4099 22.0004ZM19.6399 16.0004C18.8488 16.0004 18.0754 16.235 17.4176 16.6745C16.7598 17.114 16.2471 17.7387 15.9444 18.4696C15.6416 19.2006 15.5624 20.0048 15.7168 20.7807C15.8711 21.5567 16.2521 22.2694 16.8115 22.8288C17.3709 23.3882 18.0836 23.7692 18.8595 23.9235C19.6355 24.0779 20.4397 23.9987 21.1706 23.6959C21.9015 23.3932 22.5262 22.8805 22.9658 22.2227C23.4053 21.5649 23.6399 20.7915 23.6399 20.0004C23.6399 18.9395 23.2185 17.9221 22.4683 17.172C21.7182 16.4218 20.7008 16.0004 19.6399 16.0004ZM19.6399 22.0004C19.2443 22.0004 18.8577 21.8831 18.5288 21.6633C18.1999 21.4436 17.9435 21.1312 17.7921 20.7657C17.6408 20.4003 17.6012 19.9982 17.6783 19.6102C17.7555 19.2222 17.946 18.8659 18.2257 18.5862C18.5054 18.3065 18.8618 18.116 19.2497 18.0388C19.6377 17.9616 20.0398 18.0012 20.4053 18.1526C20.7707 18.304 21.0831 18.5603 21.3028 18.8892C21.5226 19.2181 21.6399 19.6048 21.6399 20.0004C21.6399 20.5308 21.4292 21.0395 21.0541 21.4146C20.679 21.7897 20.1703 22.0004 19.6399 22.0004Z" fill="white"/>
</svg>
