<svg width="40" height="40" viewBox="0 0 40 40" fill="none" xmlns="http://www.w3.org/2000/svg">
<rect width="40" height="40" rx="20" fill="#4AA785"/>
<path d="M28.0308 14.342L20.1847 10.8528C20.1269 10.8256 20.0639 10.8115 20.0001 10.8115C19.9363 10.8115 19.8732 10.8256 19.8155 10.8528L11.9693 14.342C11.8882 14.3774 11.8189 14.4354 11.7698 14.509C11.7207 14.5827 11.6938 14.6689 11.6924 14.7574V17.2312C11.6924 21.7728 14.4062 27.2743 19.8339 29.1758C19.9417 29.2124 20.0585 29.2124 20.1662 29.1758C25.5939 27.2743 28.3078 21.7728 28.3078 17.2312V14.7574C28.3063 14.6689 28.2794 14.5827 28.2303 14.509C28.1812 14.4354 28.112 14.3774 28.0308 14.342ZM24.3275 17.3974L19.4536 23.6023C19.3828 23.6918 19.2939 23.7653 19.1927 23.8181C19.0916 23.8709 18.9804 23.9018 18.8665 23.9088L18.8185 23.9106C18.6039 23.9102 18.3982 23.825 18.2462 23.6734L15.7355 21.1626C15.584 21.0108 15.4991 20.8051 15.4994 20.5907C15.4996 20.3763 15.5851 20.1708 15.7368 20.0194C15.8886 19.868 16.0943 19.783 16.3087 19.7833C16.5231 19.7836 16.7287 19.869 16.8801 20.0208L18.7465 21.8872L23.0573 16.3995C23.1921 16.238 23.3845 16.1354 23.5937 16.1134C23.8028 16.0914 24.0124 16.1518 24.1778 16.2818C24.3432 16.4117 24.4514 16.601 24.4795 16.8095C24.5076 17.018 24.4534 17.2292 24.3284 17.3983L24.3275 17.3974Z" fill="white"/>
</svg>
