<svg width="40" height="40" viewBox="0 0 40 40" fill="none" xmlns="http://www.w3.org/2000/svg">
<rect width="40" height="40" rx="20" fill="#4B7BBF"/>
<path d="M17 23C15.3333 23 13.9167 22.4167 12.75 21.25C11.5833 20.0833 11 18.6667 11 17C11 16.6667 11.025 16.3333 11.075 16C11.125 15.6667 11.2167 15.35 11.35 15.05C11.4333 14.8833 11.5377 14.7583 11.663 14.675C11.7883 14.5917 11.9257 14.5333 12.075 14.5C12.2243 14.4667 12.3787 14.471 12.538 14.513C12.6973 14.555 12.843 14.6423 12.975 14.775L15.6 17.4L17.4 15.6L14.775 12.975C14.6417 12.8417 14.5543 12.696 14.513 12.538C14.4717 12.38 14.4673 12.2257 14.5 12.075C14.5327 11.9243 14.591 11.7867 14.675 11.662C14.759 11.5373 14.884 11.4333 15.05 11.35C15.35 11.2167 15.6667 11.125 16 11.075C16.3333 11.025 16.6667 11 17 11C18.6667 11 20.0833 11.5833 21.25 12.75C22.4167 13.9167 23 15.3333 23 17C23 17.3833 22.9667 17.746 22.9 18.088C22.8333 18.43 22.7333 18.7673 22.6 19.1L27.65 24.1C28.1333 24.5833 28.375 25.175 28.375 25.875C28.375 26.575 28.1333 27.1667 27.65 27.65C27.1667 28.1333 26.575 28.375 25.875 28.375C25.175 28.375 24.5833 28.125 24.1 27.625L19.1 22.6C18.7667 22.7333 18.4293 22.8333 18.088 22.9C17.7467 22.9667 17.384 23 17 23Z" fill="white"/>
</svg>
