<svg width="24" height="25" viewBox="0 0 24 25" fill="none" xmlns="http://www.w3.org/2000/svg">
<path d="M20.7171 13.5603C20.998 13.279 21.1558 12.8978 21.1558 12.5003C21.1558 12.1028 20.998 11.7215 20.7171 11.4403L15.0611 5.78128C14.7797 5.49988 14.398 5.3418 14.0001 5.3418C13.6021 5.3418 13.2205 5.49988 12.9391 5.78128C12.6577 6.06267 12.4996 6.44433 12.4996 6.84228C12.4996 7.24023 12.6577 7.62188 12.9391 7.90328L16.0351 11.0003H4.50008C4.10226 11.0003 3.72073 11.1583 3.43942 11.4396C3.15812 11.7209 3.00008 12.1025 3.00008 12.5003C3.00008 12.8981 3.15812 13.2796 3.43942 13.5609C3.72073 13.8422 4.10226 14.0003 4.50008 14.0003L16.0351 14.0003L12.9391 17.0963C12.7997 17.2356 12.6892 17.401 12.6138 17.5831C12.5384 17.7651 12.4996 17.9602 12.4996 18.1573C12.4996 18.3543 12.5384 18.5494 12.6138 18.7315C12.6892 18.9135 12.7997 19.0789 12.9391 19.2183C13.0784 19.3576 13.2438 19.4681 13.4259 19.5435C13.6079 19.6189 13.803 19.6578 14.0001 19.6578C14.1971 19.6578 14.3922 19.6189 14.5743 19.5435C14.7563 19.4681 14.9217 19.3576 15.0611 19.2183L20.7171 13.5603Z" fill="white"/>
</svg>
