<svg width="15" height="16" viewBox="0 0 15 16" fill="none" xmlns="http://www.w3.org/2000/svg">
<path d="M4.6876 4L3.1251 4.875L4.0001 3.3125L3.1251 1.75L4.6876 2.625L6.2501 1.75L5.3751 3.3125L6.2501 4.875L4.6876 4ZM12.1876 10.125L13.7501 9.25L12.8751 10.8125L13.7501 12.375L12.1876 11.5L10.6251 12.375L11.5001 10.8125L10.6251 9.25L12.1876 10.125ZM13.7501 1.75L12.8751 3.3125L13.7501 4.875L12.1876 4L10.6251 4.875L11.5001 3.3125L10.6251 1.75L12.1876 2.625L13.7501 1.75ZM8.3376 8.4875L9.8626 6.9625L8.5376 5.6375L7.0126 7.1625L8.3376 8.4875ZM8.98135 5.05625L10.4438 6.51875C10.6876 6.75 10.6876 7.15625 10.4438 7.4L3.1501 14.6937C2.90635 14.9375 2.5001 14.9375 2.26885 14.6937L0.806348 13.2313C0.562598 13 0.562598 12.5937 0.806348 12.35L8.1001 5.05625C8.34385 4.8125 8.7501 4.8125 8.98135 5.05625Z" fill="black"/>
</svg>
