<svg width="20" height="20" viewBox="0 0 20 20" fill="none" xmlns="http://www.w3.org/2000/svg">
<path d="M6.76665 7.74164L9.99999 10.975L13.2333 7.74164C13.3105 7.66449 13.4021 7.60329 13.5029 7.56154C13.6037 7.51978 13.7117 7.49829 13.8208 7.49829C13.9299 7.49829 14.038 7.51978 14.1388 7.56154C14.2396 7.60329 14.3312 7.66449 14.4083 7.74164C14.4855 7.81879 14.5467 7.91039 14.5884 8.01119C14.6302 8.11199 14.6517 8.22003 14.6517 8.32914C14.6517 8.43825 14.6302 8.54629 14.5884 8.64709C14.5467 8.7479 14.4855 8.83949 14.4083 8.91664L10.5833 12.7416C10.2583 13.0666 9.73332 13.0666 9.40832 12.7416L5.58332 8.91664C5.50607 8.83955 5.44478 8.74797 5.40296 8.64716C5.36114 8.54635 5.33962 8.43828 5.33962 8.32914C5.33962 8.22 5.36114 8.11193 5.40296 8.01112C5.44478 7.91031 5.50607 7.81874 5.58332 7.74164C5.90832 7.42498 6.44165 7.41664 6.76665 7.74164Z" fill="white"/>
</svg>
