<svg width="32" height="32" viewBox="0 0 32 32" fill="none" xmlns="http://www.w3.org/2000/svg">
<path d="M5.49989 8.5L3.67289 9.7195C2.36189 10.5925 1.70639 11.029 1.35089 11.695C0.995392 12.3625 0.998392 13.1455 1.00439 14.71C1.01039 16.597 1.02839 18.517 1.07639 20.461C1.19189 25.0735 1.24889 27.379 2.94539 29.074C4.64039 30.769 6.97739 30.829 11.6514 30.946C14.5504 31.0185 17.4508 31.0185 20.3499 30.946C25.0239 30.829 27.3609 30.7705 29.0559 29.074C30.7509 27.379 30.8094 25.0735 30.9249 20.461C30.9729 18.517 30.9909 16.597 30.9969 14.7115C31.0014 13.1455 31.0044 12.3625 30.6489 11.6965C30.2949 11.029 29.6394 10.5925 28.3284 9.7195L26.4999 8.5" fill="#4AA785"/>
<path d="M5.49989 8.5L3.67289 9.7195C2.36189 10.5925 1.70639 11.029 1.35089 11.695C0.995392 12.3625 0.998392 13.1455 1.00439 14.71C1.01039 16.597 1.02839 18.517 1.07639 20.461C1.19189 25.0735 1.24889 27.379 2.94539 29.074C4.64039 30.769 6.97739 30.829 11.6514 30.946C14.5504 31.0185 17.4508 31.0185 20.3499 30.946C25.0239 30.829 27.3609 30.7705 29.0559 29.074C30.7509 27.379 30.8094 25.0735 30.9249 20.461C30.9729 18.517 30.9909 16.597 30.9969 14.7115C31.0014 13.1455 31.0044 12.3625 30.6489 11.6965C30.2949 11.029 29.6394 10.5925 28.3284 9.7195L26.4999 8.5" stroke="#252525" stroke-width="1.5" stroke-linecap="round" stroke-linejoin="round"/>
<path d="M1 13.0001L11.3695 19.2221C13.6255 20.5751 14.7535 21.2501 16 21.2501C17.2465 21.2501 18.3745 20.5751 20.6305 19.2206L31 13.0001" fill="#4AA785"/>
<path d="M1 13.0001L11.3695 19.2221C13.6255 20.5751 14.7535 21.2501 16 21.2501C17.2465 21.2501 18.3745 20.5751 20.6305 19.2206L31 13.0001" stroke="#252525" stroke-width="1.5" stroke-linecap="round" stroke-linejoin="round"/>
<path d="M5.50005 14.5V7C5.50005 4.171 5.50005 2.758 6.37905 1.879C7.25805 1 8.67105 1 11.5 1H20.5C23.329 1 24.742 1 25.621 1.879C26.5 2.758 26.5 4.171 26.5 7V14.5" fill="#4AA785"/>
<path d="M5.50005 14.5V7C5.50005 4.171 5.50005 2.758 6.37905 1.879C7.25805 1 8.67105 1 11.5 1H20.5C23.329 1 24.742 1 25.621 1.879C26.5 2.758 26.5 4.171 26.5 7V14.5" stroke="#252525" stroke-width="1.5" stroke-linecap="round" stroke-linejoin="round"/>
<path d="M10.0001 13.0001L12.4181 6.09263C12.4831 5.91692 12.6009 5.76564 12.7553 5.65955C12.9098 5.55347 13.0933 5.49778 13.2806 5.50013C13.6736 5.50013 14.0216 5.74013 14.1446 6.09263L16.5626 13.0001M20.5001 5.50013V13.0001M11.3126 10.4996H15.2501" stroke="#252525" stroke-width="1.5" stroke-linecap="round" stroke-linejoin="round"/>
</svg>
