<svg width="14" height="14" viewBox="0 0 14 14" fill="none" xmlns="http://www.w3.org/2000/svg">
<path d="M4.1876 3L2.6251 3.875L3.5001 2.3125L2.6251 0.75L4.1876 1.625L5.7501 0.75L4.8751 2.3125L5.7501 3.875L4.1876 3ZM11.6876 9.125L13.2501 8.25L12.3751 9.8125L13.2501 11.375L11.6876 10.5L10.1251 11.375L11.0001 9.8125L10.1251 8.25L11.6876 9.125ZM13.2501 0.75L12.3751 2.3125L13.2501 3.875L11.6876 3L10.1251 3.875L11.0001 2.3125L10.1251 0.75L11.6876 1.625L13.2501 0.75ZM7.8376 7.4875L9.3626 5.9625L8.0376 4.6375L6.5126 6.1625L7.8376 7.4875ZM8.48135 4.05625L9.94385 5.51875C10.1876 5.75 10.1876 6.15625 9.94385 6.4L2.6501 13.6937C2.40635 13.9375 2.0001 13.9375 1.76885 13.6937L0.306348 12.2313C0.0625977 12 0.0625977 11.5937 0.306348 11.35L7.6001 4.05625C7.84385 3.8125 8.2501 3.8125 8.48135 4.05625Z" fill="white"/>
</svg>
