<svg width="16" height="16" viewBox="0 0 16 16" fill="none" xmlns="http://www.w3.org/2000/svg">
<path d="M5.1876 4L3.6251 4.875L4.5001 3.3125L3.6251 1.75L5.1876 2.625L6.7501 1.75L5.8751 3.3125L6.7501 4.875L5.1876 4ZM12.6876 10.125L14.2501 9.25L13.3751 10.8125L14.2501 12.375L12.6876 11.5L11.1251 12.375L12.0001 10.8125L11.1251 9.25L12.6876 10.125ZM14.2501 1.75L13.3751 3.3125L14.2501 4.875L12.6876 4L11.1251 4.875L12.0001 3.3125L11.1251 1.75L12.6876 2.625L14.2501 1.75ZM8.8376 8.4875L10.3626 6.9625L9.0376 5.6375L7.5126 7.1625L8.8376 8.4875ZM9.48135 5.05625L10.9438 6.51875C11.1876 6.75 11.1876 7.15625 10.9438 7.4L3.6501 14.6937C3.40635 14.9375 3.0001 14.9375 2.76885 14.6937L1.30635 13.2313C1.0626 13 1.0626 12.5937 1.30635 12.35L8.6001 5.05625C8.84385 4.8125 9.2501 4.8125 9.48135 5.05625Z" fill="white"/>
</svg>
