<svg width="20" height="21" viewBox="0 0 20 21" fill="none" xmlns="http://www.w3.org/2000/svg">
<path d="M6.76667 7.76581L10 10.9991L13.2333 7.76581C13.3105 7.68866 13.4021 7.62746 13.5029 7.58571C13.6037 7.54395 13.7117 7.52246 13.8208 7.52246C13.9299 7.52246 14.038 7.54395 14.1388 7.58571C14.2396 7.62746 14.3312 7.68866 14.4083 7.76581C14.4855 7.84296 14.5467 7.93456 14.5884 8.03536C14.6302 8.13616 14.6517 8.2442 14.6517 8.35331C14.6517 8.46242 14.6302 8.57046 14.5884 8.67126C14.5467 8.77207 14.4855 8.86366 14.4083 8.94081L10.5833 12.7658C10.2583 13.0908 9.73333 13.0908 9.40833 12.7658L5.58333 8.94081C5.50608 8.86372 5.44479 8.77214 5.40297 8.67133C5.36115 8.57052 5.33963 8.46245 5.33963 8.35331C5.33963 8.24417 5.36115 8.1361 5.40297 8.03529C5.44479 7.93448 5.50608 7.84291 5.58333 7.76581C5.90833 7.44914 6.44167 7.44081 6.76667 7.76581Z" fill="black"/>
</svg>
