<svg width="14" height="14" viewBox="0 0 14 14" fill="none" xmlns="http://www.w3.org/2000/svg">
<path d="M4.6876 3L3.1251 3.875L4.0001 2.3125L3.1251 0.75L4.6876 1.625L6.2501 0.75L5.3751 2.3125L6.2501 3.875L4.6876 3ZM12.1876 9.125L13.7501 8.25L12.8751 9.8125L13.7501 11.375L12.1876 10.5L10.6251 11.375L11.5001 9.8125L10.6251 8.25L12.1876 9.125ZM13.7501 0.75L12.8751 2.3125L13.7501 3.875L12.1876 3L10.6251 3.875L11.5001 2.3125L10.6251 0.75L12.1876 1.625L13.7501 0.75ZM8.3376 7.4875L9.8626 5.9625L8.5376 4.6375L7.0126 6.1625L8.3376 7.4875ZM8.98135 4.05625L10.4438 5.51875C10.6876 5.75 10.6876 6.15625 10.4438 6.4L3.1501 13.6937C2.90635 13.9375 2.5001 13.9375 2.26885 13.6937L0.806348 12.2313C0.562598 12 0.562598 11.5937 0.806348 11.35L8.1001 4.05625C8.34385 3.8125 8.7501 3.8125 8.98135 4.05625Z" fill="#E9E9E9"/>
</svg>
