<svg width="33" height="33" viewBox="0 0 33 33" fill="none" xmlns="http://www.w3.org/2000/svg">
<path d="M5.99985 8.99976L4.17285 10.2193C2.86185 11.0923 2.20635 11.5288 1.85085 12.1948C1.49535 12.8623 1.49835 13.6453 1.50435 15.2098C1.51035 17.0968 1.52835 19.0168 1.57635 20.9608C1.69185 25.5733 1.74885 27.8788 3.44535 29.5738C5.14035 31.2688 7.47735 31.3288 12.1513 31.4458C15.0504 31.5182 17.9508 31.5182 20.8498 31.4458C25.5238 31.3288 27.8608 31.2703 29.5558 29.5738C31.2508 27.8788 31.3093 25.5733 31.4248 20.9608C31.4728 19.0168 31.4908 17.0968 31.4968 15.2113C31.5013 13.6453 31.5043 12.8623 31.1488 12.1963C30.7948 11.5288 30.1393 11.0923 28.8283 10.2193L26.9998 8.99976" fill="black"/>
<path d="M5.99985 8.99976L4.17285 10.2193C2.86185 11.0923 2.20635 11.5288 1.85085 12.1948C1.49535 12.8623 1.49835 13.6453 1.50435 15.2098C1.51035 17.0968 1.52835 19.0168 1.57635 20.9608C1.69185 25.5733 1.74885 27.8788 3.44535 29.5738C5.14035 31.2688 7.47735 31.3288 12.1513 31.4458C15.0504 31.5182 17.9508 31.5182 20.8498 31.4458C25.5238 31.3288 27.8608 31.2703 29.5558 29.5738C31.2508 27.8788 31.3093 25.5733 31.4248 20.9608C31.4728 19.0168 31.4908 17.0968 31.4968 15.2113C31.5013 13.6453 31.5043 12.8623 31.1488 12.1963C30.7948 11.5288 30.1393 11.0923 28.8283 10.2193L26.9998 8.99976" stroke="#FFC766" stroke-width="1.5" stroke-linecap="round" stroke-linejoin="round"/>
<path d="M1.5 13.4998L11.8695 19.7218C14.1255 21.0748 15.2535 21.7498 16.5 21.7498C17.7465 21.7498 18.8745 21.0748 21.1305 19.7203L31.5 13.4998" fill="black"/>
<path d="M1.5 13.4998L11.8695 19.7218C14.1255 21.0748 15.2535 21.7498 16.5 21.7498C17.7465 21.7498 18.8745 21.0748 21.1305 19.7203L31.5 13.4998" stroke="#FFC766" stroke-width="1.5" stroke-linecap="round" stroke-linejoin="round"/>
<path d="M6 14.9998V7.49976C6 4.67076 6 3.25776 6.879 2.37876C7.758 1.49976 9.171 1.49976 12 1.49976H21C23.829 1.49976 25.242 1.49976 26.121 2.37876C27 3.25776 27 4.67076 27 7.49976V14.9998" fill="black"/>
<path d="M6 14.9998V7.49976C6 4.67076 6 3.25776 6.879 2.37876C7.758 1.49976 9.171 1.49976 12 1.49976H21C23.829 1.49976 25.242 1.49976 26.121 2.37876C27 3.25776 27 4.67076 27 7.49976V14.9998" stroke="#FFC766" stroke-width="1.5" stroke-linecap="round" stroke-linejoin="round"/>
<path d="M10.5 13.4998L12.918 6.59233C12.983 6.41662 13.1008 6.26533 13.2553 6.15925C13.4097 6.05316 13.5932 5.99747 13.7805 5.99983C14.1735 5.99983 14.5215 6.23983 14.6445 6.59233L17.0625 13.4998M21 5.99983V13.4998M11.8125 10.9993H15.75" stroke="#FFC766" stroke-width="1.5" stroke-linecap="round" stroke-linejoin="round"/>
</svg>
