<svg width="24" height="25" viewBox="0 0 24 25" fill="none" xmlns="http://www.w3.org/2000/svg">
<path d="M7.00003 20.5C7.26525 20.5 7.5196 20.3947 7.70714 20.2071C7.89467 20.0196 8.00003 19.7652 8.00003 19.5C8.00003 19.2348 7.89467 18.9805 7.70714 18.7929C7.5196 18.6054 7.26525 18.5 7.00003 18.5C6.73481 18.5 6.48046 18.6054 6.29292 18.7929C6.10539 18.9805 6.00003 19.2348 6.00003 19.5C6.00003 19.7652 6.10539 20.0196 6.29292 20.2071C6.48046 20.3947 6.73481 20.5 7.00003 20.5ZM8.00003 13.498V16.671C8.66752 16.9069 9.23012 17.3712 9.58839 17.9818C9.94666 18.5924 10.0775 19.31 9.95784 20.0078C9.83817 20.7056 9.47566 21.3386 8.9344 21.7949C8.39314 22.2512 7.70798 22.5015 7.00003 22.5015C6.29208 22.5015 5.60692 22.2512 5.06566 21.7949C4.5244 21.3386 4.16189 20.7056 4.04222 20.0078C3.92254 19.31 4.0534 18.5924 4.41167 17.9818C4.76994 17.3712 5.33254 16.9069 6.00003 16.671V8.32902C5.33254 8.09312 4.76994 7.62883 4.41167 7.01822C4.0534 6.40761 3.92254 5.69 4.04222 4.99223C4.16189 4.29447 4.5244 3.66148 5.06566 3.20515C5.60692 2.74882 6.29208 2.49854 7.00003 2.49854C7.70798 2.49854 8.39314 2.74882 8.9344 3.20515C9.47566 3.66148 9.83817 4.29447 9.95784 4.99223C10.0775 5.69 9.94666 6.40761 9.58839 7.01822C9.23012 7.62883 8.66752 8.09312 8.00003 8.32902V10.669C8.31203 10.559 8.64703 10.499 8.99703 10.498L15.034 10.492C15.2991 10.4918 15.5532 10.3863 15.7405 10.1988C15.9278 10.0113 16.033 9.75707 16.033 9.49202V8.34002C15.3614 8.10992 14.7931 7.64915 14.4291 7.0396C14.0651 6.43006 13.929 5.7112 14.045 5.01078C14.161 4.31036 14.5215 3.67374 15.0625 3.21405C15.6036 2.75435 16.2901 2.50136 17 2.50002C17.7049 2.49973 18.3874 2.74766 18.9278 3.20031C19.4681 3.65297 19.8318 4.28144 19.9551 4.97548C20.0783 5.66952 19.9532 6.38479 19.6018 6.99582C19.2503 7.60684 18.6949 8.0746 18.033 8.31702V9.49202C18.033 10.2872 17.7174 11.0498 17.1554 11.6123C16.5935 12.1748 15.8312 12.4912 15.036 12.492L8.99903 12.498C8.73399 12.4983 8.47989 12.6038 8.29257 12.7913C8.10525 12.9788 8.00003 13.233 8.00003 13.498ZM7.00003 6.50002C7.26525 6.50002 7.5196 6.39467 7.70714 6.20713C7.89467 6.01959 8.00003 5.76524 8.00003 5.50002C8.00003 5.23481 7.89467 4.98045 7.70714 4.79292C7.5196 4.60538 7.26525 4.50002 7.00003 4.50002C6.73481 4.50002 6.48046 4.60538 6.29292 4.79292C6.10539 4.98045 6.00003 5.23481 6.00003 5.50002C6.00003 5.76524 6.10539 6.01959 6.29292 6.20713C6.48046 6.39467 6.73481 6.50002 7.00003 6.50002ZM17 6.50002C17.2652 6.50002 17.5196 6.39467 17.7071 6.20713C17.8947 6.01959 18 5.76524 18 5.50002C18 5.23481 17.8947 4.98045 17.7071 4.79292C17.5196 4.60538 17.2652 4.50002 17 4.50002C16.7348 4.50002 16.4805 4.60538 16.2929 4.79292C16.1054 4.98045 16 5.23481 16 5.50002C16 5.76524 16.1054 6.01959 16.2929 6.20713C16.4805 6.39467 16.7348 6.50002 17 6.50002Z" fill="white"/>
</svg>
