<svg width="18" height="18" viewBox="0 0 18 18" fill="none" xmlns="http://www.w3.org/2000/svg">
<path d="M6.75 11.1719C5.5 11.1719 4.4375 10.7344 3.5625 9.85938C2.6875 8.98438 2.25 7.92187 2.25 6.67188C2.25 6.42187 2.26875 6.17188 2.30625 5.92188C2.34375 5.67187 2.4125 5.43438 2.5125 5.20938C2.575 5.08438 2.65325 4.99063 2.74725 4.92813C2.84125 4.86563 2.94425 4.82188 3.05625 4.79688C3.16825 4.77187 3.284 4.77513 3.4035 4.80663C3.523 4.83813 3.63225 4.90363 3.73125 5.00313L5.7 6.97187L7.05 5.62187L5.08125 3.65312C4.98125 3.55312 4.91575 3.44388 4.88475 3.32538C4.85375 3.20688 4.8505 3.09112 4.875 2.97812C4.8995 2.86512 4.94325 2.76187 5.00625 2.66837C5.06925 2.57487 5.163 2.49687 5.2875 2.43437C5.5125 2.33437 5.75 2.26563 6 2.22813C6.25 2.19063 6.5 2.17188 6.75 2.17188C8 2.17188 9.0625 2.60938 9.9375 3.48438C10.8125 4.35937 11.25 5.42188 11.25 6.67188C11.25 6.95937 11.225 7.23138 11.175 7.48788C11.125 7.74438 11.05 7.99738 10.95 8.24688L14.7375 11.9969C15.1 12.3594 15.2812 12.8031 15.2812 13.3281C15.2812 13.8531 15.1 14.2969 14.7375 14.6594C14.375 15.0219 13.9312 15.2031 13.4062 15.2031C12.8813 15.2031 12.4375 15.0156 12.075 14.6406L8.325 10.8719C8.075 10.9719 7.822 11.0469 7.566 11.0969C7.31 11.1469 7.038 11.1719 6.75 11.1719Z" fill="white"/>
</svg>
