<svg width="16" height="17" viewBox="0 0 16 17" fill="none" xmlns="http://www.w3.org/2000/svg">
<path d="M8.00016 9.43301L9.9335 11.3663C10.0557 11.4886 10.2113 11.5497 10.4002 11.5497C10.5891 11.5497 10.7446 11.4886 10.8668 11.3663C10.9891 11.2441 11.0502 11.0886 11.0502 10.8997C11.0502 10.7108 10.9891 10.5552 10.8668 10.433L8.9335 8.49967L10.8668 6.56634C10.9891 6.44412 11.0502 6.28856 11.0502 6.09967C11.0502 5.91079 10.9891 5.75523 10.8668 5.63301C10.7446 5.51079 10.5891 5.44967 10.4002 5.44967C10.2113 5.44967 10.0557 5.51079 9.9335 5.63301L8.00016 7.56634L6.06683 5.63301C5.94461 5.51079 5.78905 5.44967 5.60016 5.44967C5.41127 5.44967 5.25572 5.51079 5.1335 5.63301C5.01127 5.75523 4.95016 5.91079 4.95016 6.09967C4.95016 6.28856 5.01127 6.44412 5.1335 6.56634L7.06683 8.49967L5.1335 10.433C5.01127 10.5552 4.95016 10.7108 4.95016 10.8997C4.95016 11.0886 5.01127 11.2441 5.1335 11.3663C5.25572 11.4886 5.41127 11.5497 5.60016 11.5497C5.78905 11.5497 5.94461 11.4886 6.06683 11.3663L8.00016 9.43301ZM8.00016 15.1663C7.07794 15.1663 6.21128 14.9912 5.40016 14.641C4.58905 14.2908 3.8835 13.8159 3.2835 13.2163C2.6835 12.6168 2.20861 11.9112 1.85883 11.0997C1.50905 10.2881 1.33394 9.42145 1.3335 8.49967C1.33305 7.5779 1.50816 6.71123 1.85883 5.89967C2.2095 5.08812 2.68439 4.38256 3.2835 3.78301C3.88261 3.18345 4.58816 2.70856 5.40016 2.35834C6.21216 2.00812 7.07883 1.83301 8.00016 1.83301C8.9215 1.83301 9.78816 2.00812 10.6002 2.35834C11.4122 2.70856 12.1177 3.18345 12.7168 3.78301C13.3159 4.38256 13.7911 5.08812 14.1422 5.89967C14.4933 6.71123 14.6682 7.5779 14.6668 8.49967C14.6655 9.42145 14.4904 10.2881 14.1415 11.0997C13.7926 11.9112 13.3177 12.6168 12.7168 13.2163C12.1159 13.8159 11.4104 14.291 10.6002 14.6417C9.78994 14.9923 8.92327 15.1672 8.00016 15.1663Z" fill="#A74A4A"/>
</svg>
