<svg width="20" height="20" viewBox="0 0 20 20" fill="none" xmlns="http://www.w3.org/2000/svg">
<path d="M12.2584 13.2332L9.02502 9.99983L12.2584 6.7665C12.3355 6.68934 12.3967 6.59775 12.4385 6.49695C12.4802 6.39614 12.5017 6.2881 12.5017 6.179C12.5017 6.06989 12.4802 5.96185 12.4385 5.86104C12.3967 5.76024 12.3355 5.66865 12.2584 5.5915C12.1812 5.51434 12.0896 5.45314 11.9888 5.41139C11.888 5.36964 11.78 5.34814 11.6709 5.34814C11.5617 5.34814 11.4537 5.36964 11.3529 5.41139C11.2521 5.45314 11.1605 5.51434 11.0834 5.5915L7.25836 9.4165C6.93336 9.7415 6.93336 10.2665 7.25836 10.5915L11.0834 14.4165C11.1605 14.4937 11.252 14.555 11.3528 14.5969C11.4536 14.6387 11.5617 14.6602 11.6709 14.6602C11.78 14.6602 11.8881 14.6387 11.9889 14.5969C12.0897 14.555 12.1813 14.4937 12.2584 14.4165C12.575 14.0915 12.5834 13.5582 12.2584 13.2332Z" fill="#969696"/>
</svg>
