<svg width="35" height="35" viewBox="0 0 35 35" fill="none" xmlns="http://www.w3.org/2000/svg">
<path d="M13.125 22.5183C10.6944 22.5183 8.62847 21.6676 6.92708 19.9662C5.22569 18.2648 4.375 16.1989 4.375 13.7683C4.375 13.2822 4.41146 12.7961 4.48438 12.31C4.55729 11.8239 4.69097 11.3621 4.88542 10.9246C5.00694 10.6815 5.1591 10.4992 5.34188 10.3777C5.52465 10.2562 5.72493 10.1711 5.94271 10.1225C6.16049 10.0739 6.38556 10.0802 6.61792 10.1414C6.85028 10.2027 7.06271 10.33 7.25521 10.5235L11.0833 14.3516L13.7083 11.7266L9.88021 7.89852C9.68576 7.70407 9.5584 7.49164 9.49812 7.26123C9.43785 7.03081 9.43153 6.80574 9.47917 6.58602C9.52681 6.3663 9.61188 6.16553 9.73438 5.98373C9.85687 5.80192 10.0392 5.65025 10.2812 5.52873C10.7188 5.33428 11.1806 5.2006 11.6667 5.12769C12.1528 5.05477 12.6389 5.01831 13.125 5.01831C15.5556 5.01831 17.6215 5.86901 19.3229 7.57039C21.0243 9.27178 21.875 11.3378 21.875 13.7683C21.875 14.3273 21.8264 14.8562 21.7292 15.355C21.6319 15.8537 21.4861 16.3457 21.2917 16.8308L28.6562 24.1225C29.3611 24.8273 29.7135 25.6902 29.7135 26.711C29.7135 27.7319 29.3611 28.5947 28.6562 29.2996C27.9514 30.0044 27.0885 30.3569 26.0677 30.3569C25.0469 30.3569 24.184 29.9923 23.4792 29.2631L16.1875 21.935C15.7014 22.1294 15.2094 22.2753 14.7117 22.3725C14.2139 22.4697 13.685 22.5183 13.125 22.5183Z" fill="black"/>
</svg>
