<svg width="20" height="20" viewBox="0 0 20 20" fill="none" xmlns="http://www.w3.org/2000/svg">
<path d="M7.74164 13.2332L10.975 9.99983L7.74164 6.7665C7.66449 6.68934 7.60329 6.59775 7.56154 6.49695C7.51978 6.39614 7.49829 6.2881 7.49829 6.179C7.49829 6.06989 7.51978 5.96185 7.56154 5.86104C7.60329 5.76024 7.66449 5.66865 7.74164 5.5915C7.81879 5.51434 7.91039 5.45314 8.01119 5.41139C8.11199 5.36964 8.22003 5.34814 8.32914 5.34814C8.43825 5.34814 8.54629 5.36964 8.64709 5.41139C8.7479 5.45314 8.83949 5.51434 8.91664 5.5915L12.7416 9.4165C13.0666 9.7415 13.0666 10.2665 12.7416 10.5915L8.91664 14.4165C8.83955 14.4937 8.74797 14.555 8.64716 14.5969C8.54635 14.6387 8.43828 14.6602 8.32914 14.6602C8.22 14.6602 8.11193 14.6387 8.01112 14.5969C7.91031 14.555 7.81874 14.4937 7.74164 14.4165C7.42498 14.0915 7.41664 13.5582 7.74164 13.2332Z" fill="white"/>
</svg>
