<?xml version="1.0" standalone="no"?>
<!DOCTYPE svg PUBLIC "-//W3C//DTD SVG 20010904//EN"
 "http://www.w3.org/TR/2001/REC-SVG-20010904/DTD/svg10.dtd">
<svg version="1.0" xmlns="http://www.w3.org/2000/svg"
 width="512.000000pt" height="512.000000pt" viewBox="0 0 512.000000 512.000000"
 preserveAspectRatio="xMidYMid meet">

<g transform="translate(0.000000,512.000000) scale(0.100000,-0.100000)"
fill="#000000" stroke="none">
<path d="M2494 4626 c-17 -8 -44 -31 -60 -52 l-29 -37 -5 -945 -5 -944 -793
-458 c-436 -251 -802 -466 -813 -476 -63 -57 -65 -144 -4 -244 279 -460 747
-801 1280 -934 317 -79 668 -79 995 1 420 102 813 348 1096 686 521 621 631
1499 280 2232 -108 225 -243 412 -432 596 -340 330 -758 525 -1239 579 -124
14 -234 12 -271 -4z m435 -346 c214 -45 463 -155 651 -288 121 -86 326 -290
413 -412 91 -129 208 -366 251 -510 149 -501 73 -1042 -207 -1468 -224 -341
-539 -587 -919 -714 -186 -62 -286 -79 -503 -85 -325 -9 -536 35 -820 171
-145 70 -259 144 -382 248 -106 90 -283 287 -283 316 0 6 358 216 795 469
l794 458 1 924 0 924 58 -7 c31 -4 99 -16 151 -26z"/>
<path d="M1797 4495 c-184 -73 -388 -191 -537 -312 -108 -87 -285 -272 -367
-383 -206 -280 -327 -566 -390 -925 -13 -74 -17 -156 -17 -315 0 -263 17 -391
59 -446 48 -63 132 -82 203 -45 119 61 1262 727 1285 749 15 14 32 42 38 62 6
23 9 295 7 792 -3 746 -3 757 -24 784 -60 81 -127 91 -257 39z m-39 -926 l-3
-550 -474 -275 c-261 -151 -476 -274 -479 -274 -9 0 7 285 22 370 45 268 149
520 304 740 79 112 288 326 385 395 79 55 226 145 239 145 4 0 7 -248 6 -551z"/>
</g>
</svg>
