<svg width="26" height="26" viewBox="0 0 26 26" fill="none" xmlns="http://www.w3.org/2000/svg">
<path d="M5.00067 20.5837C4.50161 20.5837 4.08525 20.4168 3.75158 20.0832C3.41792 19.7495 3.25072 19.3328 3.25 18.833V7.16766C3.25 6.6686 3.41719 6.25224 3.75158 5.91858C4.08597 5.58491 4.50197 5.41771 4.99958 5.41699H9.66875C9.90203 5.41699 10.1288 5.46394 10.3491 5.55783C10.5694 5.65316 10.7579 5.77919 10.9146 5.93591L12.5623 7.58366H21.0004C21.4988 7.58366 21.9151 7.75085 22.2495 8.08524C22.5839 8.41963 22.7507 8.83599 22.75 9.33433V18.8341C22.75 19.3324 22.5832 19.7488 22.2495 20.0832C21.9158 20.4175 21.4995 20.5844 21.0004 20.5837H5.00067ZM5.00067 19.5003H21.0004C21.1947 19.5003 21.3543 19.4379 21.4793 19.3129C21.6042 19.188 21.6667 19.0284 21.6667 18.8341V9.33324C21.6667 9.13896 21.6042 8.97935 21.4793 8.85441C21.3543 8.72946 21.1947 8.66699 21.0004 8.66699H12.1279L10.1465 6.68774C10.0772 6.61841 10.0042 6.57002 9.92767 6.54258C9.85256 6.51441 9.77383 6.50033 9.6915 6.50033H5.00067C4.80639 6.50033 4.64678 6.5628 4.52183 6.68774C4.39689 6.81269 4.33406 6.97266 4.33333 7.16766V18.8341C4.33333 19.0284 4.39581 19.188 4.52075 19.3129C4.64569 19.4379 4.80567 19.5003 5.00067 19.5003ZM15.7083 14.6253V16.2503C15.7083 16.4049 15.76 16.5338 15.8633 16.6371C15.9665 16.7404 16.0954 16.792 16.25 16.792C16.4046 16.792 16.5335 16.7404 16.6368 16.6371C16.74 16.5338 16.7917 16.4049 16.7917 16.2503V14.6253H18.4167C18.5712 14.6253 18.7001 14.5737 18.8034 14.4704C18.9067 14.3671 18.9583 14.2382 18.9583 14.0837C18.9583 13.9291 18.9067 13.8002 18.8034 13.6969C18.7001 13.5936 18.5712 13.542 18.4167 13.542H16.7917V11.917C16.7917 11.7632 16.74 11.6342 16.6368 11.5302C16.5335 11.4262 16.4046 11.3746 16.25 11.3753C16.0954 11.376 15.9665 11.4277 15.8633 11.5302C15.76 11.6328 15.7083 11.7617 15.7083 11.917V13.542H14.0833C13.9295 13.542 13.8006 13.5936 13.6966 13.6969C13.5926 13.8002 13.5409 13.9291 13.5417 14.0837C13.5424 14.2382 13.594 14.3671 13.6966 14.4704C13.7991 14.5737 13.9281 14.6253 14.0833 14.6253H15.7083Z" fill="#1C1C1C"/>
<path d="M4.33333 19.5003V6.50033M5.00067 20.5837C4.50161 20.5837 4.08525 20.4168 3.75158 20.0832C3.41792 19.7495 3.25072 19.3328 3.25 18.833V7.16766C3.25 6.6686 3.41719 6.25224 3.75158 5.91858C4.08597 5.58491 4.50197 5.41771 4.99958 5.41699H9.66875C9.90203 5.41699 10.1288 5.46394 10.3491 5.55783C10.5694 5.65316 10.7579 5.77919 10.9146 5.93591L12.5623 7.58366H21.0004C21.4988 7.58366 21.9151 7.75085 22.2495 8.08524C22.5839 8.41963 22.7507 8.83599 22.75 9.33433V18.8341C22.75 19.3324 22.5832 19.7488 22.2495 20.0832C21.9158 20.4175 21.4995 20.5844 21.0004 20.5837H5.00067ZM5.00067 19.5003H21.0004C21.1947 19.5003 21.3543 19.4379 21.4793 19.3129C21.6042 19.188 21.6667 19.0284 21.6667 18.8341V9.33324C21.6667 9.13896 21.6042 8.97935 21.4793 8.85441C21.3543 8.72946 21.1947 8.66699 21.0004 8.66699H12.1279L10.1465 6.68774C10.0772 6.61841 10.0042 6.57002 9.92767 6.54258C9.85256 6.51441 9.77383 6.50033 9.6915 6.50033H5.00067C4.80639 6.50033 4.64678 6.5628 4.52183 6.68774C4.39689 6.81269 4.33406 6.97266 4.33333 7.16766V18.8341C4.33333 19.0284 4.39581 19.188 4.52075 19.3129C4.64569 19.4379 4.80567 19.5003 5.00067 19.5003ZM15.7083 14.6253V16.2503C15.7083 16.4049 15.76 16.5338 15.8633 16.6371C15.9665 16.7404 16.0954 16.792 16.25 16.792C16.4046 16.792 16.5335 16.7404 16.6368 16.6371C16.74 16.5338 16.7917 16.4049 16.7917 16.2503V14.6253H18.4167C18.5712 14.6253 18.7001 14.5737 18.8034 14.4704C18.9067 14.3671 18.9583 14.2382 18.9583 14.0837C18.9583 13.9291 18.9067 13.8002 18.8034 13.6969C18.7001 13.5936 18.5712 13.542 18.4167 13.542H16.7917V11.917C16.7917 11.7632 16.74 11.6342 16.6368 11.5302C16.5335 11.4262 16.4046 11.3746 16.25 11.3753C16.0954 11.376 15.9665 11.4277 15.8633 11.5302C15.76 11.6328 15.7083 11.7617 15.7083 11.917V13.542H14.0833C13.9295 13.542 13.8006 13.5936 13.6966 13.6969C13.5926 13.8002 13.5409 13.9291 13.5417 14.0837C13.5424 14.2382 13.594 14.3671 13.6966 14.4704C13.7991 14.5737 13.9281 14.6253 14.0833 14.6253H15.7083Z" stroke="#1C1C1C" stroke-width="0.5"/>
</svg>
