<svg width="26" height="26" viewBox="0 0 26 26" fill="none" xmlns="http://www.w3.org/2000/svg">
<path d="M5.00067 20.5832C4.50161 20.5832 4.08525 20.4163 3.75158 20.0827C3.41792 19.749 3.25072 19.3323 3.25 18.8325V7.16717C3.25 6.66812 3.41719 6.25175 3.75158 5.91809C4.08597 5.58442 4.50197 5.41723 4.99958 5.4165H9.66875C9.90203 5.4165 10.1288 5.46345 10.3491 5.55734C10.5694 5.65267 10.7579 5.7787 10.9146 5.93542L12.5623 7.58317H21.0004C21.4988 7.58317 21.9151 7.75036 22.2495 8.08475C22.5839 8.41914 22.7507 8.8355 22.75 9.33384V18.8336C22.75 19.3319 22.5832 19.7483 22.2495 20.0827C21.9158 20.4171 21.4995 20.5839 21.0004 20.5832H5.00067ZM5.00067 19.4998H21.0004C21.1947 19.4998 21.3543 19.4374 21.4793 19.3124C21.6042 19.1875 21.6667 19.0279 21.6667 18.8336V9.33275C21.6667 9.13848 21.6042 8.97887 21.4793 8.85392C21.3543 8.72898 21.1947 8.6665 21.0004 8.6665H12.1279L10.1465 6.68725C10.0772 6.61792 10.0042 6.56953 9.92767 6.54209C9.85256 6.51392 9.77383 6.49984 9.6915 6.49984H5.00067C4.80639 6.49984 4.64678 6.56231 4.52183 6.68725C4.39689 6.8122 4.33406 6.97217 4.33333 7.16717V18.8336C4.33333 19.0279 4.39581 19.1875 4.52075 19.3124C4.64569 19.4374 4.80567 19.4998 5.00067 19.4998ZM15.7083 14.6248V16.2498C15.7083 16.4044 15.76 16.5333 15.8633 16.6366C15.9665 16.7399 16.0954 16.7915 16.25 16.7915C16.4046 16.7915 16.5335 16.7399 16.6368 16.6366C16.74 16.5333 16.7917 16.4044 16.7917 16.2498V14.6248H18.4167C18.5712 14.6248 18.7001 14.5732 18.8034 14.4699C18.9067 14.3666 18.9583 14.2377 18.9583 14.0832C18.9583 13.9286 18.9067 13.7997 18.8034 13.6964C18.7001 13.5931 18.5712 13.5415 18.4167 13.5415H16.7917V11.9165C16.7917 11.7627 16.74 11.6338 16.6368 11.5298C16.5335 11.4258 16.4046 11.3741 16.25 11.3748C16.0954 11.3756 15.9665 11.4272 15.8633 11.5298C15.76 11.6323 15.7083 11.7612 15.7083 11.9165V13.5415H14.0833C13.9295 13.5415 13.8006 13.5931 13.6966 13.6964C13.5926 13.7997 13.5409 13.9286 13.5417 14.0832C13.5424 14.2377 13.594 14.3666 13.6966 14.4699C13.7991 14.5732 13.9281 14.6248 14.0833 14.6248H15.7083Z" fill="white"/>
<path d="M4.33333 19.4998V6.49984M5.00067 20.5832C4.50161 20.5832 4.08525 20.4163 3.75158 20.0827C3.41792 19.749 3.25072 19.3323 3.25 18.8325V7.16717C3.25 6.66812 3.41719 6.25175 3.75158 5.91809C4.08597 5.58442 4.50197 5.41723 4.99958 5.4165H9.66875C9.90203 5.4165 10.1288 5.46345 10.3491 5.55734C10.5694 5.65267 10.7579 5.7787 10.9146 5.93542L12.5623 7.58317H21.0004C21.4988 7.58317 21.9151 7.75036 22.2495 8.08475C22.5839 8.41914 22.7507 8.8355 22.75 9.33384V18.8336C22.75 19.3319 22.5832 19.7483 22.2495 20.0827C21.9158 20.4171 21.4995 20.5839 21.0004 20.5832H5.00067ZM5.00067 19.4998H21.0004C21.1947 19.4998 21.3543 19.4374 21.4793 19.3124C21.6042 19.1875 21.6667 19.0279 21.6667 18.8336V9.33275C21.6667 9.13848 21.6042 8.97887 21.4793 8.85392C21.3543 8.72898 21.1947 8.6665 21.0004 8.6665H12.1279L10.1465 6.68725C10.0772 6.61792 10.0042 6.56953 9.92767 6.54209C9.85256 6.51392 9.77383 6.49984 9.6915 6.49984H5.00067C4.80639 6.49984 4.64678 6.56231 4.52183 6.68725C4.39689 6.8122 4.33406 6.97217 4.33333 7.16717V18.8336C4.33333 19.0279 4.39581 19.1875 4.52075 19.3124C4.64569 19.4374 4.80567 19.4998 5.00067 19.4998ZM15.7083 14.6248V16.2498C15.7083 16.4044 15.76 16.5333 15.8633 16.6366C15.9665 16.7399 16.0954 16.7915 16.25 16.7915C16.4046 16.7915 16.5335 16.7399 16.6368 16.6366C16.74 16.5333 16.7917 16.4044 16.7917 16.2498V14.6248H18.4167C18.5712 14.6248 18.7001 14.5732 18.8034 14.4699C18.9067 14.3666 18.9583 14.2377 18.9583 14.0832C18.9583 13.9286 18.9067 13.7997 18.8034 13.6964C18.7001 13.5931 18.5712 13.5415 18.4167 13.5415H16.7917V11.9165C16.7917 11.7627 16.74 11.6338 16.6368 11.5298C16.5335 11.4258 16.4046 11.3741 16.25 11.3748C16.0954 11.3756 15.9665 11.4272 15.8633 11.5298C15.76 11.6323 15.7083 11.7612 15.7083 11.9165V13.5415H14.0833C13.9295 13.5415 13.8006 13.5931 13.6966 13.6964C13.5926 13.7997 13.5409 13.9286 13.5417 14.0832C13.5424 14.2377 13.594 14.3666 13.6966 14.4699C13.7991 14.5732 13.9281 14.6248 14.0833 14.6248H15.7083Z" stroke="white" stroke-width="0.5"/>
</svg>
