<svg width="16" height="17" viewBox="0 0 16 17" fill="none" xmlns="http://www.w3.org/2000/svg">
<mask id="mask0_122_28511" style="mask-type:luminance" maskUnits="userSpaceOnUse" x="0" y="0" width="16" height="17">
<path d="M7.99998 15.1668C8.87562 15.1679 9.74284 14.996 10.5518 14.6609C11.3608 14.3258 12.0956 13.8341 12.714 13.2142C13.3339 12.5958 13.8256 11.861 14.1607 11.052C14.4958 10.243 14.6677 9.3758 14.6667 8.50017C14.6677 7.62453 14.4958 6.75731 14.1607 5.94833C13.8256 5.13935 13.3339 4.40456 12.714 3.78617C12.0956 3.16622 11.3608 2.67457 10.5518 2.33947C9.74284 2.00437 8.87562 1.83242 7.99998 1.8335C7.12435 1.83242 6.25713 2.00437 5.44815 2.33947C4.63917 2.67457 3.90438 3.16622 3.28598 3.78617C2.66604 4.40456 2.17439 5.13935 1.83929 5.94833C1.50419 6.75731 1.33224 7.62453 1.33332 8.50017C1.33224 9.3758 1.50419 10.243 1.83929 11.052C2.17439 11.861 2.66604 12.5958 3.28598 13.2142C3.90438 13.8341 4.63917 14.3258 5.44815 14.6609C6.25713 14.996 7.12435 15.1679 7.99998 15.1668Z" fill="white" stroke="white" stroke-width="2" stroke-linejoin="round"/>
<path d="M5.33331 8.5L7.33331 10.5L11.3333 6.5" stroke="black" stroke-width="2" stroke-linecap="round" stroke-linejoin="round"/>
</mask>
<g mask="url(#mask0_122_28511)">
<path d="M0 0.5H16V16.5H0V0.5Z" fill="#323232"/>
</g>
</svg>
