<svg width="26" height="26" viewBox="0 0 26 26" fill="none" xmlns="http://www.w3.org/2000/svg">
<path d="M5.00067 20.5832C4.50161 20.5832 4.08525 20.4163 3.75158 20.0827C3.41792 19.749 3.25072 19.3323 3.25 18.8325V7.16717C3.25 6.66812 3.41719 6.25175 3.75158 5.91809C4.08597 5.58442 4.50053 5.41723 4.99525 5.4165H9.66333C9.90383 5.4165 10.1331 5.46345 10.3513 5.55734C10.5694 5.65267 10.7568 5.7787 10.9135 5.93542L12.5623 7.58317H21.0004C21.4988 7.58317 21.9151 7.75036 22.2495 8.08475C22.5839 8.41914 22.7507 8.8355 22.75 9.33384V18.8336C22.75 19.3319 22.5832 19.7483 22.2495 20.0827C21.9158 20.4171 21.4995 20.5839 21.0004 20.5832H5.00067ZM15.7083 14.6248V16.2498C15.7083 16.4037 15.7603 16.5322 15.8643 16.6355C15.9683 16.7388 16.0973 16.7908 16.2511 16.7915C16.4049 16.7922 16.5335 16.7402 16.6368 16.6355C16.74 16.5308 16.7917 16.4022 16.7917 16.2498V14.6248H18.4167C18.5705 14.6248 18.6991 14.5728 18.8023 14.4688C18.9056 14.3648 18.9576 14.2359 18.9583 14.0821C18.9591 13.9283 18.9071 13.7997 18.8023 13.6964C18.6976 13.5931 18.5691 13.5415 18.4167 13.5415H16.7917V11.9165C16.7917 11.7627 16.7397 11.6341 16.6357 11.5308C16.5317 11.4276 16.4028 11.3756 16.2489 11.3748C16.0951 11.3741 15.9665 11.4261 15.8633 11.5308C15.76 11.6356 15.7083 11.7641 15.7083 11.9165V13.5415H14.0833C13.9295 13.5415 13.8009 13.5935 13.6977 13.6975C13.5944 13.8015 13.5424 13.9304 13.5417 14.0843C13.5409 14.2381 13.5929 14.3666 13.6977 14.4699C13.8024 14.5732 13.9309 14.6248 14.0833 14.6248H15.7083Z" fill="white"/>
</svg>
