<svg width="16" height="17" viewBox="0 0 16 17" fill="none" xmlns="http://www.w3.org/2000/svg">
<path d="M7.99992 15.1668C8.87556 15.1679 9.74278 14.996 10.5518 14.6609C11.3607 14.3258 12.0955 13.8341 12.7139 13.2142C13.3339 12.5958 13.8255 11.861 14.1606 11.052C14.4957 10.243 14.6677 9.3758 14.6666 8.50017C14.6677 7.62453 14.4957 6.75731 14.1606 5.94833C13.8255 5.13935 13.3339 4.40456 12.7139 3.78617C12.0955 3.16622 11.3607 2.67457 10.5518 2.33947C9.74278 2.00437 8.87556 1.83242 7.99992 1.8335C7.12429 1.83242 6.25707 2.00437 5.44809 2.33947C4.63911 2.67457 3.90431 3.16622 3.28592 3.78617C2.66598 4.40456 2.17433 5.13935 1.83923 5.94833C1.50413 6.75731 1.33218 7.62453 1.33326 8.50017C1.33218 9.3758 1.50413 10.243 1.83923 11.052C2.17433 11.861 2.66598 12.5958 3.28592 13.2142C3.90431 13.8341 4.63911 14.3258 5.44809 14.6609C6.25707 14.996 7.12429 15.1679 7.99992 15.1668Z" stroke="white" stroke-width="2" stroke-linejoin="round"/>
<path d="M5.33325 8.5L7.33325 10.5L11.3333 6.5" stroke="white" stroke-width="2" stroke-linecap="round" stroke-linejoin="round"/>
</svg>
