<svg width="16" height="17" viewBox="0 0 16 17" fill="none" xmlns="http://www.w3.org/2000/svg">
<path d="M7.99992 15.1666C8.87556 15.1677 9.74278 14.9957 10.5518 14.6606C11.3607 14.3255 12.0955 13.8339 12.7139 13.2139C13.3339 12.5955 13.8255 11.8607 14.1606 11.0518C14.4957 10.2428 14.6677 9.37556 14.6666 8.49992C14.6677 7.62429 14.4957 6.75707 14.1606 5.94809C13.8255 5.13911 13.3339 4.40431 12.7139 3.78592C12.0955 3.16598 11.3607 2.67433 10.5518 2.33923C9.74278 2.00413 8.87556 1.83218 7.99992 1.83326C7.12429 1.83218 6.25707 2.00413 5.44809 2.33923C4.63911 2.67433 3.90431 3.16598 3.28592 3.78592C2.66598 4.40431 2.17433 5.13911 1.83923 5.94809C1.50413 6.75707 1.33218 7.62429 1.33326 8.49992C1.33218 9.37556 1.50413 10.2428 1.83923 11.0518C2.17433 11.8607 2.66598 12.5955 3.28592 13.2139C3.90431 13.8339 4.63911 14.3255 5.44809 14.6606C6.25707 14.9957 7.12429 15.1677 7.99992 15.1666Z" stroke="#484848" stroke-width="2" stroke-linejoin="round"/>
<path d="M5.33325 8.5L7.33325 10.5L11.3333 6.5" stroke="#484848" stroke-width="2" stroke-linecap="round" stroke-linejoin="round"/>
</svg>
