<svg width="16" height="16" viewBox="0 0 16 16" fill="none" xmlns="http://www.w3.org/2000/svg">
<path d="M9.06058 7.99984L12.0293 5.03109C12.1702 4.89044 12.2495 4.69958 12.2497 4.5005C12.2498 4.30142 12.1709 4.11042 12.0303 3.96952C11.8896 3.82863 11.6988 3.74937 11.4997 3.7492C11.3006 3.74902 11.1096 3.82794 10.9687 3.96859L7.99996 6.93734L5.03121 3.96859C4.89031 3.82769 4.69922 3.74854 4.49996 3.74854C4.3007 3.74854 4.1096 3.82769 3.96871 3.96859C3.82781 4.10948 3.74866 4.30058 3.74866 4.49984C3.74866 4.69909 3.82781 4.89019 3.96871 5.03109L6.93746 7.99984L3.96871 10.9686C3.82781 11.1095 3.74866 11.3006 3.74866 11.4998C3.74866 11.6991 3.82781 11.8902 3.96871 12.0311C4.1096 12.172 4.3007 12.2511 4.49996 12.2511C4.69922 12.2511 4.89031 12.172 5.03121 12.0311L7.99996 9.06234L10.9687 12.0311C11.1096 12.172 11.3007 12.2511 11.5 12.2511C11.6992 12.2511 11.8903 12.172 12.0312 12.0311C12.1721 11.8902 12.2513 11.6991 12.2513 11.4998C12.2513 11.3006 12.1721 11.1095 12.0312 10.9686L9.06058 7.99984Z" fill="black"/>
</svg>
