<svg width="26" height="26" viewBox="0 0 26 26" fill="none" xmlns="http://www.w3.org/2000/svg">
<path d="M5.00067 20.5837C4.50161 20.5837 4.08525 20.4168 3.75158 20.0832C3.41792 19.7495 3.25072 19.3328 3.25 18.833V7.16766C3.25 6.6686 3.41719 6.25224 3.75158 5.91858C4.08597 5.58491 4.50053 5.41771 4.99525 5.41699H9.66333C9.90383 5.41699 10.1331 5.46394 10.3513 5.55783C10.5694 5.65316 10.7568 5.77919 10.9135 5.93591L12.5623 7.58366H21.0004C21.4988 7.58366 21.9151 7.75085 22.2495 8.08524C22.5839 8.41963 22.7507 8.83599 22.75 9.33433V18.8341C22.75 19.3324 22.5832 19.7488 22.2495 20.0832C21.9158 20.4175 21.4995 20.5844 21.0004 20.5837H5.00067ZM15.7083 14.6253V16.2503C15.7083 16.4042 15.7603 16.5327 15.8643 16.636C15.9683 16.7393 16.0973 16.7913 16.2511 16.792C16.4049 16.7927 16.5335 16.7407 16.6368 16.636C16.74 16.5313 16.7917 16.4027 16.7917 16.2503V14.6253H18.4167C18.5705 14.6253 18.6991 14.5733 18.8023 14.4693C18.9056 14.3653 18.9576 14.2364 18.9583 14.0826C18.9591 13.9287 18.9071 13.8002 18.8023 13.6969C18.6976 13.5936 18.5691 13.542 18.4167 13.542H16.7917V11.917C16.7917 11.7632 16.7397 11.6346 16.6357 11.5313C16.5317 11.428 16.4028 11.376 16.2489 11.3753C16.0951 11.3746 15.9665 11.4266 15.8633 11.5313C15.76 11.636 15.7083 11.7646 15.7083 11.917V13.542H14.0833C13.9295 13.542 13.8009 13.594 13.6977 13.698C13.5944 13.802 13.5424 13.9309 13.5417 14.0847C13.5409 14.2386 13.5929 14.3671 13.6977 14.4704C13.8024 14.5737 13.9309 14.6253 14.0833 14.6253H15.7083Z" fill="black"/>
</svg>
