<svg width="21" height="20" viewBox="0 0 21 20" fill="none" xmlns="http://www.w3.org/2000/svg">
<path fill-rule="evenodd" clip-rule="evenodd" d="M17.2759 2.63333C16.807 2.16466 16.1713 1.90137 15.5084 1.90137C14.8454 1.90137 14.2097 2.16466 13.7409 2.63333L13.1517 3.22333L17.2767 7.34833L17.865 6.75917C18.0972 6.52702 18.2814 6.2514 18.4071 5.94806C18.5327 5.64472 18.5974 5.31959 18.5974 4.99125C18.5974 4.66291 18.5327 4.33779 18.4071 4.03444C18.2814 3.7311 18.0972 3.45549 17.865 3.22333L17.2759 2.63333ZM16.0975 8.52667L11.9725 4.40167L4.39752 11.9775C4.23176 12.1433 4.11596 12.3524 4.06335 12.5808L3.20585 16.2933C3.1739 16.4312 3.17757 16.5748 3.2165 16.7109C3.25544 16.8469 3.32836 16.9707 3.4284 17.0708C3.52844 17.1708 3.65231 17.2437 3.78832 17.2827C3.92434 17.3216 4.06803 17.3253 4.20585 17.2933L7.91919 16.4367C8.14736 16.3839 8.35612 16.2681 8.52169 16.1025L16.0975 8.52667Z" fill="black"/>
</svg>
