<svg width="21" height="20" viewBox="0 0 21 20" fill="none" xmlns="http://www.w3.org/2000/svg">
<path d="M5.64007 2.20415C5.57987 2.0926 5.48718 2.00199 5.3743 1.94435C5.26142 1.8867 5.13368 1.86473 5.00802 1.88137C4.88237 1.898 4.76474 1.95244 4.67074 2.03748C4.57675 2.12251 4.51083 2.23412 4.48173 2.35748L2.39173 11.2808C2.36498 11.395 2.37088 11.5143 2.40875 11.6253C2.44662 11.7363 2.51494 11.8343 2.6059 11.9083L10.0909 17.985C10.2021 18.0752 10.3409 18.1245 10.4841 18.1247C10.6273 18.1248 10.7662 18.0758 10.8776 17.9858L18.3934 11.9091C18.4847 11.8352 18.5532 11.737 18.5913 11.6259C18.6293 11.5148 18.6352 11.3952 18.6084 11.2808L16.5234 2.35748C16.4937 2.23099 16.4252 2.11691 16.3277 2.03111C16.2301 1.94531 16.1082 1.89206 15.9789 1.87877C15.8497 1.86548 15.7195 1.8928 15.6065 1.95694C15.4935 2.02108 15.4033 2.11885 15.3484 2.23665L13.0034 7.28915H8.3709L5.64007 2.20415Z" fill="white"/>
</svg>
