<svg width="17" height="16" viewBox="0 0 17 16" fill="none" xmlns="http://www.w3.org/2000/svg">
<path fill-rule="evenodd" clip-rule="evenodd" d="M8.032 1.46333C8.29508 1.3649 8.58253 1.35207 8.85333 1.42666L8.968 1.46333L13.6347 3.21333C13.8713 3.30206 14.0778 3.4562 14.2302 3.6578C14.3826 3.8594 14.4745 4.10015 14.4953 4.352L14.5 4.462V8.03733C14.5 9.11761 14.2083 10.1778 13.6557 11.1061C13.1032 12.0344 12.3103 12.7963 11.3607 13.3113L11.1833 13.404L8.94733 14.522C8.82422 14.5835 8.68974 14.6189 8.55231 14.626C8.41489 14.6331 8.27747 14.6118 8.14867 14.5633L8.05267 14.522L5.81667 13.404C4.85041 12.9209 4.03252 12.1858 3.44934 11.2764C2.86616 10.367 2.53932 9.31705 2.50333 8.23733L2.5 8.03733V4.462C2.5 4.20942 2.57175 3.96203 2.70689 3.74864C2.84203 3.53526 3.035 3.36464 3.26333 3.25666L3.36533 3.21333L8.032 1.46333ZM10.7887 5.75266L7.72333 8.818L6.54467 7.63933C6.41957 7.51432 6.24994 7.44413 6.0731 7.4442C5.89625 7.44426 5.72667 7.51457 5.60167 7.63966C5.47666 7.76476 5.40647 7.93439 5.40653 8.11123C5.40659 8.28808 5.47691 8.45766 5.602 8.58266L7.20467 10.1853C7.27277 10.2535 7.35362 10.3075 7.44262 10.3444C7.53161 10.3813 7.627 10.4002 7.72333 10.4002C7.81966 10.4002 7.91505 10.3813 8.00405 10.3444C8.09304 10.3075 8.1739 10.2535 8.242 10.1853L11.7313 6.69533C11.795 6.63383 11.8458 6.56027 11.8807 6.47893C11.9157 6.3976 11.9341 6.31012 11.9348 6.2216C11.9356 6.13308 11.9187 6.04529 11.8852 5.96336C11.8517 5.88143 11.8022 5.807 11.7396 5.7444C11.677 5.68181 11.6026 5.6323 11.5206 5.59878C11.4387 5.56526 11.3509 5.54839 11.2624 5.54916C11.1739 5.54993 11.0864 5.56832 11.0051 5.60326C10.9237 5.6382 10.8502 5.68899 10.7887 5.75266Z" fill="#3D3D3D"/>
</svg>
