<svg width="12" height="15" viewBox="0 0 12 15" fill="none" xmlns="http://www.w3.org/2000/svg">
<path fill-rule="evenodd" clip-rule="evenodd" d="M5.532 0.463452C5.79508 0.365021 6.08253 0.352188 6.35333 0.426786L6.468 0.463452L11.1347 2.21345C11.3713 2.30218 11.5778 2.45632 11.7302 2.65792C11.8826 2.85952 11.9745 3.10027 11.9953 3.35212L12 3.46212V7.03745C12 8.11773 11.7083 9.17797 11.1557 10.1062C10.6032 11.0345 9.81026 11.7964 8.86067 12.3115L8.68333 12.4041L6.44733 13.5221C6.32422 13.5836 6.18974 13.619 6.05231 13.6261C5.91489 13.6332 5.77747 13.6119 5.64867 13.5635L5.55267 13.5221L3.31667 12.4041C2.35041 11.921 1.53252 11.1859 0.949336 10.2765C0.366155 9.36714 0.0393204 8.31717 0.00333341 7.23745L0 7.03745V3.46212C3.8767e-06 3.20954 0.0717511 2.96215 0.206889 2.74877C0.342027 2.53538 0.534997 2.36476 0.763333 2.25679L0.865333 2.21345L5.532 0.463452ZM8.28867 4.75279L5.22333 7.81812L4.04467 6.63945C3.91957 6.51445 3.74994 6.44425 3.5731 6.44432C3.39625 6.44438 3.22667 6.51469 3.10167 6.63979C2.97666 6.76488 2.90647 6.93451 2.90653 7.11135C2.90659 7.2882 2.97691 7.45778 3.102 7.58278L4.70467 9.18545C4.77277 9.25358 4.85362 9.30763 4.94262 9.34451C5.03161 9.38138 5.127 9.40036 5.22333 9.40036C5.31966 9.40036 5.41505 9.38138 5.50405 9.34451C5.59304 9.30763 5.6739 9.25358 5.742 9.18545L9.23133 5.69545C9.29501 5.63395 9.3458 5.56039 9.38074 5.47906C9.41567 5.39772 9.43406 5.31024 9.43483 5.22172C9.4356 5.1332 9.41874 5.04541 9.38521 4.96348C9.35169 4.88155 9.30219 4.80712 9.2396 4.74452C9.177 4.68193 9.10257 4.63242 9.02064 4.5989C8.93871 4.56538 8.85092 4.54852 8.7624 4.54929C8.67388 4.55005 8.5864 4.56845 8.50506 4.60338C8.42373 4.63832 8.35016 4.68911 8.28867 4.75279Z" fill="#E9E9E9"/>
</svg>
