<svg width="386" height="108" viewBox="0 0 386 108" fill="none" xmlns="http://www.w3.org/2000/svg">
<path fill-rule="evenodd" clip-rule="evenodd" d="M325.086 18.4936C304.231 18.4936 290.864 34.3479 290.864 53.8997C290.864 73.4516 304.231 89.297 325.086 89.297C345.941 89.297 366.388 73.4516 366.388 53.8997C366.388 34.3479 345.941 18.4936 325.086 18.4936ZM328.626 0.797112C300.305 -2.74748 271.983 24.572 271.983 53.8997C271.983 83.2275 296.765 110.542 328.626 107.002C360.488 103.463 385.269 83.2275 385.269 53.8997C385.269 24.572 356.948 4.34171 328.626 0.797112Z" fill="white"/>
<path d="M304.533 107.305C304.422 107.305 304.333 107.215 304.333 107.105V0.707329C304.333 0.596878 304.422 0.507339 304.533 0.507339H321.833C321.944 0.507339 322.033 0.596878 322.033 0.707336V107.105C322.033 107.215 321.944 107.305 321.833 107.305H304.533Z" fill="white"/>
<rect x="304.333" y="107.001" width="35.4018" height="104.253" transform="rotate(-180 304.333 107.001)" fill="#1C1C1C"/>
<path d="M40.9724 106.999C53.1277 106.999 62.8069 104.409 70.01 99.0122C77.2132 93.6155 80.8147 86.2762 80.8147 76.5623C80.8147 68.1436 77.8885 61.8835 72.261 57.3504C66.4085 52.8172 58.7551 48.9317 49.0759 45.4778C42.5481 42.8875 36.9206 40.513 32.6438 38.3543C28.3669 36.1957 26.116 32.9577 26.116 28.6404C26.116 24.7549 27.6916 21.7328 31.0681 19.79C34.4446 17.8472 38.9465 16.9838 44.574 16.9838C48.8508 16.9838 53.1277 17.6314 57.1795 18.9265C61.0061 20.2217 65.0579 21.9486 69.3347 24.3231C73.6116 26.6976 81.0398 12.6665 76.3128 9.64438C71.5857 6.62227 66.4085 4.46363 61.0061 2.95259C55.6038 1.44154 50.2014 0.793945 44.574 0.793945C33.3191 0.793945 24.3152 3.16845 17.3371 8.13332C10.3591 13.0982 6.98263 20.0059 7.20773 28.8563C7.43283 37.0591 10.3591 43.3192 16.2116 47.6365C21.8391 51.9538 29.4924 55.8393 39.1716 59.2931C45.6995 61.6676 51.1018 64.0422 55.3787 66.4167C59.6555 68.7912 61.6814 72.4609 61.6814 77.2099C61.6814 81.5272 59.8806 84.7651 56.2791 87.1396C52.4524 89.5141 47.2752 90.5935 40.2971 90.5935C35.5701 90.5935 30.6179 89.73 25.6658 88.2189C20.7136 86.7079 15.5364 84.3334 9.9089 80.6637C4.28146 76.994 -2.69658 92.5362 2.93087 95.9901C8.55832 99.4439 14.636 102.034 20.7136 103.977C26.7912 105.92 33.5442 106.999 40.9724 106.999Z" fill="white"/>
<path d="M176.399 18.4966C172.859 18.4966 159.673 17.6245 145.025 18.0606C130.377 18.4966 123.297 36.3017 123.297 53.8983C123.297 71.495 130.864 89.3001 146.114 89.3001C146.114 89.3001 173.312 89.3002 176.399 89.3001C179.486 89.3001 180.392 107.001 176.399 107.001C172.406 107.001 169.319 107.001 162.8 107.001C156.282 107.001 146.114 107.001 146.114 107.001C122.051 107.001 105.596 83.2261 105.596 53.8983C105.596 24.5706 122.051 0.795723 146.114 0.795723C146.114 0.795723 172.406 0.795723 176.399 0.795776C180.392 0.79583 179.939 18.4966 176.399 18.4966Z" fill="white"/>
<path d="M110.035 44.5251C110.512 45.0011 173.827 43.8012 177.102 44.5251C180.378 45.249 180.918 63.266 177.102 63.2135C173.287 63.1609 111.923 63.5812 110.035 63.2135C108.146 62.8457 109.558 44.0491 110.035 44.5251Z" fill="white"/>
<path d="M275.524 18.4966C271.984 18.4966 258.798 17.6245 244.15 18.0606C229.501 18.4966 222.421 36.3017 222.421 53.8983C222.421 71.495 229.989 89.3001 245.239 89.3001C245.239 89.3001 272.436 89.3002 275.524 89.3001C278.611 89.3001 279.517 107.001 275.524 107.001C271.531 107.001 268.443 107.001 261.925 107.001C255.407 107.001 245.239 107.001 245.239 107.001C221.175 107.001 204.72 83.2261 204.72 53.8983C204.72 24.5706 221.175 0.795723 245.239 0.795723C245.239 0.795723 271.531 0.795723 275.524 0.795776C279.517 0.79583 279.064 18.4966 275.524 18.4966Z" fill="white"/>
<path d="M209.161 44.5163C209.638 44.9923 272.953 43.7924 276.228 44.5163C279.504 45.2402 280.044 63.2572 276.228 63.2047C272.413 63.1521 211.049 63.5724 209.161 63.2047C207.272 62.8369 208.684 44.0403 209.161 44.5163Z" fill="white"/>
</svg>
