<svg width="126" height="34" viewBox="0 0 126 34" fill="none" xmlns="http://www.w3.org/2000/svg">
<path fill-rule="evenodd" clip-rule="evenodd" d="M106.274 5.60146C99.4382 5.60146 95.0571 10.5073 95.0571 16.5573C95.0571 22.6073 99.4382 27.5104 106.274 27.5104C113.11 27.5104 119.811 22.6073 119.811 16.5573C119.811 10.5073 113.11 5.60146 106.274 5.60146ZM107.434 0.125595C98.1514 -0.971222 88.8685 7.48232 88.8685 16.5573C88.8685 25.6323 96.991 34.0842 107.434 32.989C117.877 31.8938 126 25.6323 126 16.5573C126 7.48232 116.717 1.22241 107.434 0.125595Z" fill="#1C1C1C"/>
<path d="M99.6714 33.0834C99.561 33.0834 99.4714 32.9938 99.4714 32.8834V0.236698C99.4714 0.12624 99.561 0.0366974 99.6714 0.0366974H105.073C105.184 0.0366974 105.273 0.12624 105.273 0.236698V32.8834C105.273 32.9938 105.184 33.0834 105.073 33.0834H99.6714Z" fill="#1C1C1C"/>
<rect x="99.4714" y="32.9883" width="11.6036" height="32.2594" transform="rotate(-180 99.4714 32.9883)" fill="white"/>
<path d="M13.15 32.9884C17.1342 32.9884 20.3067 32.1868 22.6677 30.5169C25.0286 28.8471 26.2091 26.576 26.2091 23.5702C26.2091 20.9652 25.25 19.0281 23.4055 17.6254C21.4872 16.2227 18.9787 15.0204 15.8061 13.9517C13.6665 13.1501 11.822 12.4154 10.4202 11.7474C9.01835 11.0795 8.28055 10.0775 8.28055 8.74162C8.28055 7.5393 8.79701 6.60416 9.90371 6.003C11.0104 5.40184 12.486 5.13466 14.3305 5.13466C15.7323 5.13466 17.1342 5.33505 18.4622 5.73582C19.7165 6.13659 21.0445 6.67096 22.4463 7.40571C23.8481 8.14046 26.2829 3.79875 24.7335 2.86362C23.1841 1.92848 21.4872 1.26052 19.7165 0.792954C17.9457 0.325386 16.175 0.125 14.3305 0.125C10.6415 0.125 7.69031 0.859751 5.40313 2.39605C3.11595 3.93234 2.00925 6.0698 2.08303 8.80841C2.15681 11.3466 3.11595 13.2837 5.03423 14.6196C6.87873 15.9555 9.38725 17.1578 12.5598 18.2266C14.6994 18.9613 16.4701 19.6961 17.872 20.4308C19.2738 21.1656 19.9378 22.3011 19.9378 23.7706C19.9378 25.1065 19.3476 26.1084 18.1671 26.8432C16.9128 27.5779 15.2159 27.9119 12.9287 27.9119C11.3793 27.9119 9.75615 27.6447 8.13299 27.1772C6.50983 26.7096 4.81289 25.9749 2.96839 24.8393C1.12389 23.7038 -1.16329 28.5131 0.681211 29.5818C2.52571 30.6505 4.51777 31.4521 6.50983 32.0532C8.50189 32.6544 10.7153 32.9884 13.15 32.9884Z" fill="#1C1C1C"/>
<path d="M57.539 5.60017C56.3786 5.60017 52.0567 5.33031 47.2555 5.46524C42.4543 5.60017 40.1336 11.1096 40.1336 16.5546C40.1336 21.9996 42.6141 27.5091 47.6125 27.5091C47.6125 27.5091 56.527 27.5091 57.539 27.5091C58.5509 27.5091 58.8478 32.9864 57.539 32.9863C56.2301 32.9863 55.2182 32.9864 53.0817 32.9863C50.9452 32.9863 47.6125 32.9863 47.6125 32.9863C39.7252 32.9863 34.3318 25.6296 34.3318 16.5546C34.3318 7.47964 39.7252 0.122925 47.6125 0.122925C47.6125 0.122925 56.2301 0.122925 57.539 0.12294C58.8478 0.122959 58.6993 5.60017 57.539 5.60017Z" fill="#1C1C1C"/>
<path d="M35.7866 13.656C35.9429 13.8033 56.6956 13.432 57.7693 13.656C58.843 13.88 59.0198 19.455 57.7693 19.4388C56.5188 19.4225 36.4056 19.5526 35.7866 19.4388C35.1676 19.325 35.6303 13.5087 35.7866 13.656Z" fill="#1C1C1C"/>
<path d="M90.0287 5.60017C88.8683 5.60017 84.5465 5.33031 79.7452 5.46524C74.944 5.60017 72.6233 11.1096 72.6233 16.5546C72.6233 21.9996 75.1038 27.5091 80.1023 27.5091C80.1023 27.5091 89.0168 27.5091 90.0287 27.5091C91.0406 27.5091 91.3375 32.9864 90.0287 32.9863C88.7199 32.9863 87.708 32.9864 85.5714 32.9863C83.4349 32.9863 80.1023 32.9863 80.1023 32.9863C72.2149 32.9863 66.8215 25.6296 66.8215 16.5546C66.8215 7.47964 72.2149 0.122925 80.1023 0.122925C80.1023 0.122925 88.7199 0.122925 90.0287 0.12294C91.3375 0.122959 91.1891 5.60017 90.0287 5.60017Z" fill="#1C1C1C"/>
<path d="M68.2769 13.653C68.4332 13.8003 89.1858 13.4291 90.2595 13.653C91.3333 13.877 91.5101 19.4521 90.2595 19.4358C89.009 19.4196 68.8958 19.5496 68.2769 19.4358C67.6579 19.3221 68.1206 13.5057 68.2769 13.653Z" fill="#1C1C1C"/>
</svg>
