<svg width="71" height="83" viewBox="0 0 71 83" fill="none" xmlns="http://www.w3.org/2000/svg">
<rect x="8" y="9.15039" width="43" height="18" rx="6" fill="#666666"/>
<rect x="0.4" y="0.550391" width="70.2" height="81.2" rx="11.6" stroke="black" stroke-width="0.8"/>
<path d="M54.98 22.1504L57.39 14.7604H58.93L61.33 22.1504H59.94L58.82 18.2204C58.7 17.8271 58.5867 17.4237 58.48 17.0104C58.3733 16.5971 58.2633 16.1904 58.15 15.7904H58.11C58.01 16.1971 57.9033 16.6071 57.79 17.0204C57.6767 17.4271 57.5633 17.8271 57.45 18.2204L56.32 22.1504H54.98ZM56.4 20.1504V19.1204H59.89V20.1504H56.4Z" fill="black"/>
<path d="M55.94 45.1504V37.7604H58.31C58.8167 37.7604 59.2667 37.8204 59.66 37.9404C60.06 38.0537 60.3733 38.2437 60.6 38.5104C60.8267 38.7704 60.94 39.1271 60.94 39.5804C60.94 39.8137 60.9 40.0404 60.82 40.2604C60.74 40.4737 60.6233 40.6637 60.47 40.8304C60.3167 40.9904 60.1333 41.1071 59.92 41.1804V41.2304C60.3267 41.3171 60.6633 41.5071 60.93 41.8004C61.1967 42.0871 61.33 42.4804 61.33 42.9804C61.33 43.4737 61.2067 43.8804 60.96 44.2004C60.7133 44.5204 60.3767 44.7604 59.95 44.9204C59.5233 45.0737 59.0367 45.1504 58.49 45.1504H55.94ZM57.26 40.8104H58.19C58.7033 40.8104 59.0733 40.7171 59.3 40.5304C59.5333 40.3437 59.65 40.0904 59.65 39.7704C59.65 39.4171 59.53 39.1671 59.29 39.0204C59.05 38.8671 58.69 38.7904 58.21 38.7904H57.26V40.8104ZM57.26 44.1204H58.36C58.9 44.1204 59.3133 44.0237 59.6 43.8304C59.8933 43.6304 60.04 43.3237 60.04 42.9104C60.04 42.5171 59.8967 42.2337 59.61 42.0604C59.3233 41.8871 58.9067 41.8004 58.36 41.8004H57.26V44.1204Z" fill="black"/>
<path d="M58.88 68.2904C58.4133 68.2904 57.98 68.2071 57.58 68.0404C57.18 67.8737 56.8267 67.6271 56.52 67.3004C56.2133 66.9737 55.9733 66.5737 55.8 66.1004C55.6333 65.6271 55.55 65.0871 55.55 64.4804C55.55 63.8737 55.6367 63.3337 55.81 62.8604C55.99 62.3871 56.2333 61.9837 56.54 61.6504C56.8533 61.3171 57.2133 61.0637 57.62 60.8904C58.0333 60.7171 58.4733 60.6304 58.94 60.6304C59.4067 60.6304 59.82 60.7271 60.18 60.9204C60.54 61.1071 60.8367 61.3237 61.07 61.5704L60.37 62.4104C60.1767 62.2237 59.9667 62.0704 59.74 61.9504C59.5133 61.8304 59.2533 61.7704 58.96 61.7704C58.5667 61.7704 58.2133 61.8804 57.9 62.1004C57.5867 62.3137 57.3433 62.6204 57.17 63.0204C56.9967 63.4137 56.91 63.8871 56.91 64.4404C56.91 65.0004 56.9933 65.4837 57.16 65.8904C57.3267 66.2904 57.56 66.6004 57.86 66.8204C58.1667 67.0337 58.5233 67.1404 58.93 67.1404C59.2567 67.1404 59.55 67.0704 59.81 66.9304C60.07 66.7904 60.3033 66.6071 60.51 66.3804L61.21 67.2104C60.91 67.5637 60.5667 67.8337 60.18 68.0204C59.7933 68.2004 59.36 68.2904 58.88 68.2904Z" fill="black"/>
<rect x="8" y="32.1504" width="43" height="18" rx="6" fill="#666666"/>
<rect x="8" y="55.1504" width="43" height="18" rx="6" fill="#666666"/>
</svg>
