<svg width="16" height="5" viewBox="0 0 16 5" fill="none" xmlns="http://www.w3.org/2000/svg">
<path fill-rule="evenodd" clip-rule="evenodd" d="M2 0.515625C0.9 0.515625 0 1.41562 0 2.51562C0 3.61562 0.9 4.51562 2 4.51562C3.1 4.51562 4 3.61562 4 2.51562C4 1.41562 3.1 0.515625 2 0.515625ZM14 0.515625C12.9 0.515625 12 1.41562 12 2.51562C12 3.61562 12.9 4.51562 14 4.51562C15.1 4.51562 16 3.61562 16 2.51562C16 1.41562 15.1 0.515625 14 0.515625ZM8 0.515625C6.9 0.515625 6 1.41562 6 2.51562C6 3.61562 6.9 4.51562 8 4.51562C9.1 4.51562 10 3.61562 10 2.51562C10 1.41562 9.1 0.515625 8 0.515625Z" fill="#969696"/>
</svg>
