<svg width="71" height="88" viewBox="0 0 71 88" fill="none" xmlns="http://www.w3.org/2000/svg">
<rect x="0.4" y="0.550391" width="67.2" height="26.2" rx="7.6" stroke="black" stroke-width="0.8"/>
<rect x="0.4" y="30.5504" width="67.2" height="26.2" rx="7.6" stroke="black" stroke-width="0.8"/>
<rect x="0.4" y="60.5504" width="67.2" height="26.2" rx="7.6" stroke="black" stroke-width="0.8"/>
<path d="M8 12.1504C8 9.38897 10.2386 7.15039 13 7.15039H46C48.7614 7.15039 51 9.38897 51 12.1504V15.1504C51 17.9118 48.7614 20.1504 46 20.1504H13C10.2386 20.1504 8 17.9118 8 15.1504V12.1504Z" fill="#666666"/>
<path d="M8 42.1504C8 39.389 10.2386 37.1504 13 37.1504H46C48.7614 37.1504 51 39.389 51 42.1504V45.1504C51 47.9118 48.7614 50.1504 46 50.1504H13C10.2386 50.1504 8 47.9118 8 45.1504V42.1504Z" fill="#666666"/>
<path d="M8 72.1504C8 69.389 10.2386 67.1504 13 67.1504H46C48.7614 67.1504 51 69.389 51 72.1504V75.1504C51 77.9118 48.7614 80.1504 46 80.1504H13C10.2386 80.1504 8 77.9118 8 75.1504V72.1504Z" fill="#666666"/>
<path d="M53.98 17.1504L56.39 9.76039H57.93L60.33 17.1504H58.94L57.82 13.2204C57.7 12.8271 57.5867 12.4237 57.48 12.0104C57.3733 11.5971 57.2633 11.1904 57.15 10.7904H57.11C57.01 11.1971 56.9033 11.6071 56.79 12.0204C56.6767 12.4271 56.5633 12.8271 56.45 13.2204L55.32 17.1504H53.98ZM55.4 15.1504V14.1204H58.89V15.1504H55.4Z" fill="black"/>
<path d="M54.94 47.1504V39.7604H57.31C57.8167 39.7604 58.2667 39.8204 58.66 39.9404C59.06 40.0537 59.3733 40.2437 59.6 40.5104C59.8267 40.7704 59.94 41.1271 59.94 41.5804C59.94 41.8137 59.9 42.0404 59.82 42.2604C59.74 42.4737 59.6233 42.6637 59.47 42.8304C59.3167 42.9904 59.1333 43.1071 58.92 43.1804V43.2304C59.3267 43.3171 59.6633 43.5071 59.93 43.8004C60.1967 44.0871 60.33 44.4804 60.33 44.9804C60.33 45.4737 60.2067 45.8804 59.96 46.2004C59.7133 46.5204 59.3767 46.7604 58.95 46.9204C58.5233 47.0737 58.0367 47.1504 57.49 47.1504H54.94ZM56.26 42.8104H57.19C57.7033 42.8104 58.0733 42.7171 58.3 42.5304C58.5333 42.3437 58.65 42.0904 58.65 41.7704C58.65 41.4171 58.53 41.1671 58.29 41.0204C58.05 40.8671 57.69 40.7904 57.21 40.7904H56.26V42.8104ZM56.26 46.1204H57.36C57.9 46.1204 58.3133 46.0237 58.6 45.8304C58.8933 45.6304 59.04 45.3237 59.04 44.9104C59.04 44.5171 58.8967 44.2337 58.61 44.0604C58.3233 43.8871 57.9067 43.8004 57.36 43.8004H56.26V46.1204Z" fill="black"/>
<path d="M57.88 77.2904C57.4133 77.2904 56.98 77.2071 56.58 77.0404C56.18 76.8737 55.8267 76.6271 55.52 76.3004C55.2133 75.9737 54.9733 75.5737 54.8 75.1004C54.6333 74.6271 54.55 74.0871 54.55 73.4804C54.55 72.8737 54.6367 72.3337 54.81 71.8604C54.99 71.3871 55.2333 70.9837 55.54 70.6504C55.8533 70.3171 56.2133 70.0637 56.62 69.8904C57.0333 69.7171 57.4733 69.6304 57.94 69.6304C58.4067 69.6304 58.82 69.7271 59.18 69.9204C59.54 70.1071 59.8367 70.3237 60.07 70.5704L59.37 71.4104C59.1767 71.2237 58.9667 71.0704 58.74 70.9504C58.5133 70.8304 58.2533 70.7704 57.96 70.7704C57.5667 70.7704 57.2133 70.8804 56.9 71.1004C56.5867 71.3137 56.3433 71.6204 56.17 72.0204C55.9967 72.4137 55.91 72.8871 55.91 73.4404C55.91 74.0004 55.9933 74.4837 56.16 74.8904C56.3267 75.2904 56.56 75.6004 56.86 75.8204C57.1667 76.0337 57.5233 76.1404 57.93 76.1404C58.2567 76.1404 58.55 76.0704 58.81 75.9304C59.07 75.7904 59.3033 75.6071 59.51 75.3804L60.21 76.2104C59.91 76.5637 59.5667 76.8337 59.18 77.0204C58.7933 77.2004 58.36 77.2904 57.88 77.2904Z" fill="black"/>
</svg>
