<svg width="16" height="16" viewBox="0 0 16 16" fill="none" xmlns="http://www.w3.org/2000/svg">
<path d="M5.95064 8.92202V13.1914L7.82564 11.9414L9.70064 13.1914V8.92202M9.04876 2.73827L8.84689 2.46077C8.72961 2.29987 8.57597 2.16896 8.3985 2.07871C8.22103 1.98845 8.02474 1.94141 7.82564 1.94141C7.62653 1.94141 7.43025 1.98845 7.25277 2.07871C7.0753 2.16896 6.92167 2.29987 6.80439 2.46077L6.60251 2.73827L6.26314 2.68514C6.06648 2.65413 5.86527 2.67007 5.67594 2.73165C5.48661 2.79324 5.31453 2.89873 5.17375 3.03951C5.03297 3.18029 4.92749 3.35237 4.8659 3.5417C4.80431 3.73102 4.78837 3.93223 4.81939 4.12889L4.87251 4.46827L4.59501 4.67014C4.43388 4.78726 4.30275 4.94084 4.21233 5.11833C4.12191 5.29583 4.07478 5.4922 4.07478 5.69139C4.07478 5.89059 4.12191 6.08696 4.21233 6.26446C4.30275 6.44195 4.43388 6.59553 4.59501 6.71264L4.87251 6.91452L4.81939 7.25327C4.78826 7.44998 4.80412 7.65126 4.86565 7.84067C4.92719 8.03008 5.03267 8.20225 5.17346 8.3431C5.31425 8.48395 5.48637 8.5895 5.67576 8.65112C5.86514 8.71274 6.06642 8.72868 6.26314 8.69764L6.60251 8.64452L6.80439 8.92202C6.92167 9.08292 7.0753 9.21383 7.25277 9.30408C7.43025 9.39434 7.62653 9.44138 7.82564 9.44138C8.02474 9.44138 8.22103 9.39434 8.3985 9.30408C8.57597 9.21383 8.72961 9.08292 8.84689 8.92202L9.04876 8.64452L9.38751 8.69764C9.58422 8.72877 9.7855 8.71291 9.97491 8.65138C10.1643 8.58984 10.3365 8.48437 10.4773 8.34357C10.6182 8.20278 10.7237 8.03066 10.7854 7.84127C10.847 7.65189 10.8629 7.45062 10.8319 7.25389L10.7788 6.91452L11.0563 6.71264C11.2172 6.59537 11.3481 6.44173 11.4383 6.26426C11.5286 6.08678 11.5756 5.8905 11.5756 5.69139C11.5756 5.49229 11.5286 5.296 11.4383 5.11853C11.3481 4.94106 11.2172 4.78742 11.0563 4.67014L10.7788 4.46827L10.8319 4.12952C10.863 3.93281 10.8472 3.73153 10.7856 3.54212C10.7241 3.35271 10.6186 3.18054 10.4778 3.03969C10.337 2.89883 10.1649 2.79328 9.97552 2.73167C9.78613 2.67005 9.58486 2.65411 9.38814 2.68514L9.04876 2.73827Z" stroke="#98CEBA" stroke-width="1.5" stroke-linecap="round" stroke-linejoin="round"/>
</svg>
