<svg width="16" height="16" viewBox="0 0 16 16" fill="none" xmlns="http://www.w3.org/2000/svg">
<path fill-rule="evenodd" clip-rule="evenodd" d="M9.83777 1.74732C10.4232 1.16189 11.2172 0.833008 12.0451 0.833008C12.873 0.833008 13.667 1.16189 14.2524 1.74732C14.8379 2.33274 15.1667 3.12674 15.1667 3.95465C15.1667 4.78256 14.8379 5.57656 14.2524 6.16198L7.92843 12.486C7.5671 12.8473 7.3551 13.0593 7.11777 13.244C6.83866 13.4626 6.53866 13.6482 6.21777 13.8006C5.9471 13.9293 5.66177 14.0246 5.17777 14.186L2.95643 14.926L2.42177 15.1046C2.20912 15.1756 1.9809 15.186 1.7627 15.1345C1.5445 15.0831 1.34495 14.9718 1.18643 14.8133C1.02791 14.6548 0.916684 14.4552 0.865226 14.237C0.813767 14.0188 0.824112 13.7906 0.895101 13.578L1.81377 10.8226C1.9751 10.338 2.07043 10.0526 2.1991 9.78131C2.35199 9.46131 2.53754 9.16131 2.75577 8.88131C2.93977 8.64531 3.15243 8.43265 3.51377 8.07132L9.83777 1.74732ZM2.9331 13.8806L4.8271 13.2486C5.35443 13.0726 5.57843 12.9973 5.7871 12.898C6.04132 12.7762 6.27977 12.6289 6.50243 12.456C6.68443 12.3133 6.85243 12.1473 7.24577 11.754L12.2924 6.70731C11.6005 6.46213 10.9724 6.06482 10.4544 5.54465C9.93475 5.02653 9.5379 4.39845 9.2931 3.70665L4.24643 8.75331C3.8531 9.14598 3.68643 9.31331 3.54443 9.49598C3.3711 9.7182 3.22377 9.95665 3.10243 10.2113C3.0031 10.42 2.92777 10.644 2.75177 11.1713L2.11977 13.0666L2.9331 13.8806ZM10.1031 2.89531C10.1264 3.01198 10.1644 3.17065 10.2291 3.35531C10.4241 3.91335 10.7433 4.41984 11.1624 4.83665C11.579 5.25574 12.0853 5.57486 12.6431 5.76998C12.8284 5.83465 12.9871 5.87265 13.1038 5.89598L13.5451 5.45465C13.9406 5.05634 14.1622 4.51751 14.1612 3.95619C14.1602 3.39486 13.9368 2.85681 13.5399 2.45989C13.1429 2.06297 12.6049 1.83955 12.0436 1.83857C11.4822 1.83759 10.9434 2.05912 10.5451 2.45465L10.1031 2.89531Z" fill="black"/>
</svg>
