<svg width="29" height="26" viewBox="0 0 29 26" fill="none" xmlns="http://www.w3.org/2000/svg">
<path d="M18.3171 11.0302C18.3171 9.1322 17.6426 7.50866 16.2935 6.15955C14.9444 4.81044 13.3208 4.13589 11.4228 4.13589C9.52484 4.13589 7.90129 4.81044 6.55219 6.15955C5.20308 7.50866 4.52853 9.1322 4.52853 11.0302C4.52853 12.9282 5.20308 14.5517 6.55219 15.9008C7.90129 17.2499 9.52484 17.9245 11.4228 17.9245C13.3208 17.9245 14.9444 17.2499 16.2935 15.9008C17.6426 14.5517 18.3171 12.9282 18.3171 11.0302ZM26.1963 23.8339C26.1963 24.3674 26.0014 24.829 25.6115 25.2189C25.2217 25.6087 24.76 25.8037 24.2265 25.8037C23.6725 25.8037 23.2108 25.6087 22.8415 25.2189L17.5631 19.9558C15.7266 21.228 13.6799 21.8641 11.4228 21.8641C9.95573 21.8641 8.55276 21.5794 7.21392 21.01C5.87507 20.4406 4.72089 19.6711 3.75138 18.7016C2.78187 17.7321 2.01242 16.5779 1.44302 15.2391C0.873626 13.9002 0.588928 12.4973 0.588928 11.0302C0.588928 9.56309 0.873626 8.16013 1.44302 6.82128C2.01242 5.48243 2.78187 4.32825 3.75138 3.35874C4.72089 2.38923 5.87507 1.61978 7.21392 1.05038C8.55276 0.480987 9.95573 0.196289 11.4228 0.196289C12.8899 0.196289 14.2929 0.480987 15.6317 1.05038C16.9706 1.61978 18.1248 2.38923 19.0943 3.35874C20.0638 4.32825 20.8332 5.48243 21.4026 6.82128C21.972 8.16013 22.2567 9.56309 22.2567 11.0302C22.2567 13.2872 21.6206 15.334 20.3485 17.1704L25.6269 22.4489C26.0065 22.8285 26.1963 23.2901 26.1963 23.8339Z" fill="white"/>
</svg>
