<svg width="20" height="20" viewBox="0 0 20 20" fill="none" xmlns="http://www.w3.org/2000/svg">
<path d="M2.91667 5.83341C2.91667 4.72835 3.35565 3.66854 4.13705 2.88714C4.91846 2.10573 5.97826 1.66675 7.08333 1.66675C8.1884 1.66675 9.24821 2.10573 10.0296 2.88714C10.811 3.66854 11.25 4.72835 11.25 5.83341C11.25 6.93848 10.811 7.99829 10.0296 8.77969C9.24821 9.56109 8.1884 10.0001 7.08333 10.0001C5.97826 10.0001 4.91846 9.56109 4.13705 8.77969C3.35565 7.99829 2.91667 6.93848 2.91667 5.83341ZM4.16667 11.6667C3.0616 11.6667 2.00179 12.1057 1.22039 12.8871C0.438987 13.6685 0 14.7283 0 15.8334L0 17.5001H14.1667V15.8334C14.1667 14.7283 13.7277 13.6685 12.9463 12.8871C12.1649 12.1057 11.1051 11.6667 10 11.6667H4.16667ZM20 17.5001H15.8333V15.8334C15.8333 14.2009 15.1633 12.7251 14.0833 11.6667H15.8333C16.3805 11.6667 16.9223 11.7745 17.4278 11.9839C17.9334 12.1933 18.3927 12.5002 18.7796 12.8871C19.1665 13.274 19.4734 13.7334 19.6828 14.2389C19.8922 14.7444 20 15.2862 20 15.8334V17.5001ZM12.9167 10.0001C12.408 10.0003 11.9035 9.90739 11.4283 9.72591C12.3889 8.65718 12.9191 7.27035 12.9167 5.83341C12.9189 4.39637 12.3883 3.00952 11.4275 1.94091C11.9984 1.72291 12.6102 1.63315 13.2196 1.67798C13.8291 1.72281 14.4212 1.90114 14.954 2.20033C15.4868 2.49953 15.9473 2.91226 16.3029 3.40927C16.6584 3.90628 16.9002 4.47541 17.0113 5.07632C17.1223 5.67723 17.0998 6.2952 16.9454 6.88644C16.7909 7.47769 16.5083 8.02772 16.1176 8.49757C15.7269 8.96741 15.2376 9.34557 14.6844 9.60522C14.1313 9.86488 13.5277 9.99968 12.9167 10.0001Z" fill="white"/>
</svg>
