<svg width="20" height="20" viewBox="0 0 20 20" fill="none" xmlns="http://www.w3.org/2000/svg">
<path d="M2.91667 5.83335C2.91667 4.72828 3.35565 3.66848 4.13705 2.88708C4.91846 2.10567 5.97826 1.66669 7.08333 1.66669C8.1884 1.66669 9.24821 2.10567 10.0296 2.88708C10.811 3.66848 11.25 4.72828 11.25 5.83335C11.25 6.93842 10.811 7.99823 10.0296 8.77963C9.24821 9.56103 8.1884 10 7.08333 10C5.97826 10 4.91846 9.56103 4.13705 8.77963C3.35565 7.99823 2.91667 6.93842 2.91667 5.83335ZM4.16667 11.6667C3.0616 11.6667 2.00179 12.1057 1.22039 12.8871C0.438987 13.6685 0 14.7283 0 15.8334L0 17.5H14.1667V15.8334C14.1667 14.7283 13.7277 13.6685 12.9463 12.8871C12.1649 12.1057 11.1051 11.6667 10 11.6667H4.16667ZM20 17.5H15.8333V15.8334C15.8333 14.2009 15.1633 12.725 14.0833 11.6667H15.8333C16.3805 11.6667 16.9223 11.7745 17.4278 11.9839C17.9334 12.1932 18.3927 12.5002 18.7796 12.8871C19.1665 13.274 19.4734 13.7333 19.6828 14.2388C19.8922 14.7444 20 15.2862 20 15.8334V17.5ZM12.9167 10C12.408 10.0002 11.9035 9.90733 11.4283 9.72585C12.3889 8.65712 12.9191 7.27029 12.9167 5.83335C12.9189 4.39631 12.3883 3.00946 11.4275 1.94085C11.9984 1.72285 12.6102 1.63308 13.2196 1.67792C13.8291 1.72275 14.4212 1.90108 14.954 2.20027C15.4868 2.49947 15.9473 2.91219 16.3029 3.40921C16.6584 3.90622 16.9002 4.47535 17.0113 5.07626C17.1223 5.67717 17.0998 6.29514 16.9454 6.88638C16.7909 7.47763 16.5083 8.02766 16.1176 8.49751C15.7269 8.96735 15.2376 9.34551 14.6844 9.60516C14.1313 9.86482 13.5277 9.99962 12.9167 10Z" fill="black"/>
</svg>
